<svg width="14" height="14" viewBox="0 0 14 14" fill="none" xmlns="http://www.w3.org/2000/svg">
<g clip-path="url(#clip0_3020_34838)">
<path d="M2.04134 12.833V11.958H1.16634C0.844175 11.958 0.583008 11.6968 0.583008 11.3747C0.583008 11.0525 0.844175 10.7913 1.16634 10.7913H2.04134V9.91634C2.04134 9.59417 2.30251 9.33301 2.62467 9.33301C2.94684 9.33301 3.20801 9.59417 3.20801 9.91634V10.7913H4.08301C4.40517 10.7913 4.66634 11.0525 4.66634 11.3747C4.66634 11.6968 4.40517 11.958 4.08301 11.958H3.20801V12.833C3.20801 13.1552 2.94684 13.4163 2.62467 13.4163C2.30251 13.4163 2.04134 13.1552 2.04134 12.833ZM7.58301 1.16634C7.82432 1.16634 8.04092 1.31485 8.1276 1.54004L9.13932 4.17017C9.31456 4.62578 9.36934 4.75752 9.44466 4.86344C9.5202 4.96965 9.61303 5.06248 9.71924 5.13802C9.82517 5.21334 9.95691 5.26813 10.4125 5.44336L13.0426 6.45508C13.2678 6.54176 13.4163 6.75836 13.4163 6.99967C13.4163 7.24099 13.2678 7.45759 13.0426 7.54427L10.4125 8.55599C9.95691 8.73122 9.82517 8.78601 9.71924 8.86133C9.61303 8.93687 9.5202 9.0297 9.44466 9.1359C9.36934 9.24183 9.31456 9.37357 9.13932 9.82918L8.1276 12.4593C8.04092 12.6845 7.82432 12.833 7.58301 12.833C7.3417 12.833 7.1251 12.6845 7.03841 12.4593L6.02669 9.82918C5.85146 9.37357 5.79668 9.24183 5.72135 9.1359C5.64582 9.0297 5.55299 8.93687 5.44678 8.86133C5.34085 8.78601 5.20911 8.73122 4.7535 8.55599L2.12337 7.54427C1.89818 7.45759 1.74967 7.24099 1.74967 6.99967C1.74967 6.75836 1.89818 6.54176 2.12337 6.45508L4.7535 5.44336C5.20911 5.26812 5.34085 5.21334 5.44678 5.13802C5.55299 5.06248 5.64582 4.96965 5.72135 4.86344C5.79668 4.75751 5.85146 4.62578 6.02669 4.17017L7.03841 1.54004C7.1251 1.31485 7.3417 1.16634 7.58301 1.16634ZM7.11589 4.58944C6.96217 4.98909 6.85252 5.28529 6.67212 5.53906C6.52097 5.75164 6.33497 5.93763 6.1224 6.08879C5.86862 6.26919 5.57242 6.37884 5.17277 6.53255L3.95825 6.99967L5.17277 7.4668C5.57242 7.62051 5.86862 7.73016 6.1224 7.91056C6.33497 8.06172 6.52097 8.24771 6.67212 8.46029C6.85252 8.71406 6.96217 9.01026 7.11589 9.40991L7.58301 10.6239L8.05013 9.40991C8.20384 9.01026 8.3135 8.71406 8.4939 8.46029C8.64505 8.24771 8.83104 8.06172 9.04362 7.91056C9.29739 7.73016 9.59359 7.62051 9.99325 7.4668L11.2072 6.99967L9.99325 6.53255C9.59359 6.37884 9.29739 6.26919 9.04362 6.08879C8.83104 5.93763 8.64505 5.75164 8.4939 5.53906C8.3135 5.28529 8.20384 4.98909 8.05013 4.58944L7.58301 3.37492L7.11589 4.58944ZM2.04134 4.08301V3.20801H1.16634C0.844175 3.20801 0.583008 2.94684 0.583008 2.62467C0.583008 2.30251 0.844175 2.04134 1.16634 2.04134H2.04134V1.16634C2.04134 0.844175 2.30251 0.583008 2.62467 0.583008C2.94684 0.583008 3.20801 0.844175 3.20801 1.16634V2.04134H4.08301C4.40517 2.04134 4.66634 2.30251 4.66634 2.62467C4.66634 2.94684 4.40517 3.20801 4.08301 3.20801H3.20801V4.08301C3.20801 4.40517 2.94684 4.66634 2.62467 4.66634C2.30251 4.66634 2.04134 4.40517 2.04134 4.08301Z" fill="#73858C"/>
</g>
<defs>
<clipPath id="clip0_3020_34838">
<rect width="14" height="14" fill="white"/>
</clipPath>
</defs>
</svg>
