<svg width="32" height="32" viewBox="0 0 32 32" fill="none" xmlns="http://www.w3.org/2000/svg">
    <rect x="0.5" y="0.5" width="31" height="31" rx="15.5" fill="#EBF5FA"/>
    <rect x="0.5" y="0.5" width="31" height="31" rx="15.5" stroke="#A5D2E7"/>
    <path fill-rule="evenodd" clip-rule="evenodd" d="M11.0667 9.33346H13.6L13.56 9.29346C14.16 9.29346 14.3 9.30012 14.5667 9.44012C14.82 9.56679 15.02 9.77346 15.1533 10.0268C15.2867 10.2868 15.3 10.4268 15.3 11.0335V13.5668C15.3 14.1668 15.2933 14.3068 15.16 14.5735C15.0333 14.8268 14.8267 15.0268 14.58 15.1601C14.32 15.2935 14.18 15.3068 13.58 15.3068H11.0467C10.4467 15.3068 10.3067 15.3001 10.0467 15.1668C9.79333 15.0401 9.59333 14.8335 9.46666 14.5868C9.33333 14.3268 9.32666 14.1868 9.32666 13.5868V11.0535C9.32666 10.4535 9.33333 10.3135 9.47333 10.0535C9.59999 9.80012 9.80666 9.60012 10.06 9.47346C10.32 9.34012 10.46 9.33346 11.0667 9.33346ZM13.9977 10.6668H13.6L13.56 10.6268H10.6333C10.6333 10.6301 10.6317 10.6318 10.6308 10.6326C10.6305 10.6329 10.6308 10.6325 10.6308 10.6326C10.6309 10.6328 10.6312 10.6335 10.6333 10.6335V13.9735C10.64 13.9735 10.64 13.9801 10.64 13.9801C10.6333 13.9801 10.7133 13.9868 11.0467 13.9868H13.58C13.8841 13.9868 13.9745 13.9868 13.9801 13.9922C13.9809 13.9868 13.9867 13.9873 13.9867 13.9935C13.9867 14.0001 13.9933 13.9201 13.9933 13.5935V11.0601C13.9933 10.777 13.9933 10.6791 13.9977 10.6668Z" fill="#0783BE"/>
    <path fill-rule="evenodd" clip-rule="evenodd" d="M18.4 9.33346H20.9333L20.8933 9.29346C21.4933 9.29346 21.6333 9.30012 21.9 9.44012C22.1533 9.56679 22.3533 9.77346 22.4867 10.0268C22.62 10.2868 22.6333 10.4268 22.6333 11.0335V13.5668C22.6333 14.1668 22.6267 14.3068 22.4933 14.5735C22.3667 14.8268 22.16 15.0268 21.9133 15.1601C21.6533 15.2935 21.5133 15.3068 20.9133 15.3068H18.38C17.78 15.3068 17.64 15.3001 17.38 15.1668C17.1267 15.0401 16.9267 14.8335 16.8 14.5868C16.6667 14.3268 16.66 14.1868 16.66 13.5868V11.0535C16.66 10.4535 16.6667 10.3135 16.8067 10.0535C16.9333 9.80012 17.14 9.60012 17.3933 9.47346C17.6533 9.34012 17.7933 9.33346 18.4 9.33346ZM21.3304 10.6626C21.312 10.6668 21.2132 10.6668 20.9333 10.6668L20.8933 10.6268H18.36C18.0267 10.6268 17.9467 10.6335 17.96 10.6335C17.9633 10.6335 17.965 10.6335 17.9658 10.6343C17.9667 10.6351 17.9667 10.6368 17.9667 10.6401C17.9733 10.6268 17.9733 10.7068 17.9733 11.0401V13.9735L17.98 13.9801C17.9764 13.9765 17.9983 13.9768 18.0723 13.9779C18.1347 13.9787 18.2342 13.9801 18.3867 13.9801H20.92C21.0725 13.9801 21.172 13.9787 21.2344 13.9779C21.2901 13.9771 21.3164 13.9767 21.3243 13.9781C21.3233 13.9697 21.3237 13.9449 21.3244 13.8959C21.3252 13.8351 21.3267 13.737 21.3267 13.5868V11.0535C21.3267 10.7843 21.3267 10.6826 21.3304 10.6626Z" fill="#0783BE"/>
    <path fill-rule="evenodd" clip-rule="evenodd" d="M20.9333 16.6668H18.4C17.7933 16.6668 17.6533 16.6735 17.3933 16.8068C17.14 16.9335 16.9333 17.1335 16.8067 17.3868C16.6667 17.6468 16.66 17.7868 16.66 18.3868V20.9201C16.66 21.5201 16.6667 21.6601 16.8 21.9201C16.9267 22.1668 17.1267 22.3735 17.38 22.5001C17.64 22.6335 17.78 22.6401 18.38 22.6401H20.9133C21.5133 22.6401 21.6533 22.6268 21.9133 22.4935C22.16 22.3601 22.3667 22.1601 22.4933 21.9068C22.6267 21.6401 22.6333 21.5001 22.6333 20.9001V18.3668C22.6333 17.7601 22.62 17.6201 22.4867 17.3601C22.3533 17.1068 22.1533 16.9001 21.9 16.7735C21.6333 16.6335 21.4933 16.6268 20.8933 16.6268L20.9333 16.6668ZM20.9333 18.0001C21.2 18.0001 21.3023 18.0001 21.3236 17.9965C21.32 18.0178 21.32 18.1201 21.32 18.3868V20.9201C21.32 21.0704 21.3186 21.1684 21.3177 21.2292C21.3169 21.283 21.3166 21.3077 21.318 21.3135H21.3133C21.32 21.3068 21.24 21.3068 20.9133 21.3068H18.38C18.2265 21.3068 18.1267 21.3054 18.065 21.3045C17.9928 21.3035 17.9728 21.3032 17.98 21.3068C17.9757 21.3025 17.9742 21.3037 17.9736 21.3034C17.9735 21.3033 17.9734 21.3031 17.9734 21.3026C17.9733 21.3021 17.9733 21.3013 17.9733 21.3001V18.3668C17.9733 18.0335 17.9733 17.9535 17.9667 17.9668C17.9667 17.9622 17.9636 17.9608 17.9637 17.9603C17.9638 17.9601 17.9645 17.9601 17.9667 17.9601H20.8933L20.9333 18.0001Z" fill="#0783BE"/>
    <path fill-rule="evenodd" clip-rule="evenodd" d="M11.0667 16.6668H13.6L13.56 16.6268C14.16 16.6268 14.3 16.6335 14.5667 16.7735C14.82 16.9001 15.02 17.1068 15.1533 17.3601C15.2867 17.6201 15.3 17.7601 15.3 18.3668V20.9001C15.3 21.5001 15.2933 21.6401 15.16 21.9068C15.0333 22.1601 14.8267 22.3601 14.58 22.4935C14.32 22.6268 14.18 22.6401 13.58 22.6401H11.0467C10.4467 22.6401 10.3067 22.6335 10.0467 22.5001C9.79333 22.3735 9.59333 22.1668 9.46666 21.9201C9.33333 21.6601 9.32666 21.5201 9.32666 20.9201V18.3868C9.32666 17.7868 9.33333 17.6468 9.47333 17.3868C9.59999 17.1335 9.80666 16.9335 10.06 16.8068C10.32 16.6735 10.46 16.6668 11.0667 16.6668ZM13.9905 17.9965C13.9697 18.0001 13.8677 18.0001 13.6 18.0001L13.56 17.9601H10.6333C10.6297 17.9638 10.628 17.9654 10.6284 17.9662C10.6287 17.9668 10.6303 17.9668 10.6333 17.9668C10.64 17.9601 10.64 18.0401 10.64 18.3735V20.9068C10.64 21.2401 10.6467 21.3201 10.6467 21.3135C10.6467 21.3104 10.6467 21.3088 10.6473 21.3085C10.648 21.3082 10.6497 21.3098 10.6533 21.3135C10.6461 21.3099 10.6661 21.3101 10.7383 21.3112C10.8 21.312 10.8998 21.3135 11.0533 21.3135H13.5867C13.9133 21.3135 13.9933 21.3135 13.9867 21.3201C13.9887 21.3181 13.9901 21.3167 13.9911 21.3159C13.99 21.3062 13.9903 21.2801 13.9911 21.2287C13.9919 21.1671 13.9933 21.0694 13.9933 20.9201V18.3868C13.9933 18.2332 13.9919 18.1334 13.991 18.0718C13.9905 18.0327 13.9901 18.0089 13.9905 17.9965Z" fill="#0783BE"/>
</svg>
