<svg width="32" height="32" viewBox="0 0 32 32" fill="none" xmlns="http://www.w3.org/2000/svg">
    <rect x="0.5" y="0.5" width="31" height="31" rx="15.5" fill="#EBF5FA"/>
    <rect x="0.5" y="0.5" width="31" height="31" rx="15.5" stroke="#A5D2E7"/>
    <path d="M15.9932 16.6668H15.9999C16.3666 16.6668 16.6666 16.3668 16.6666 16.0001C16.6666 15.6268 16.3666 15.3334 15.9999 15.3334H15.9932C15.6199 15.3334 15.3266 15.6268 15.3266 16.0001C15.3266 16.3668 15.6199 16.6668 15.9932 16.6668ZM17.8732 17.8801C14.9799 20.7668 11.7266 22.1068 10.7999 21.1734C9.86658 20.2401 11.2066 16.9868 14.0932 14.1001C16.9799 11.2068 20.2332 9.86676 21.1599 10.8001C22.0866 11.7268 20.7466 14.9801 17.8599 17.8668L17.8732 17.8801ZM18.8132 18.8201C22.1666 15.4601 23.7866 11.5334 22.1066 9.86009C20.4266 8.18009 16.5066 9.79343 13.1466 13.1534C9.78658 16.5068 8.16658 20.4334 9.84658 22.1068C11.5199 23.7801 15.4399 22.1668 18.7999 18.8068L18.8132 18.8201ZM17.8666 14.1001C20.7532 16.9868 22.0932 20.2401 21.1599 21.1668C20.2266 22.0934 16.9732 20.7534 14.0866 17.8668C11.1932 14.9734 9.85325 11.7201 10.7866 10.7934C11.7132 9.86009 14.9666 11.2001 17.8532 14.0868L17.8666 14.1001ZM18.8066 13.1534C15.4466 9.79343 11.5199 8.17342 9.84658 9.85343C8.16658 11.5268 9.77992 15.4468 13.1399 18.8068C16.4932 22.1601 20.4199 23.7801 22.0932 22.1001C23.7666 20.4201 22.1532 16.5001 18.7932 13.1401L18.8066 13.1534ZM15.6399 15.9801C15.6399 15.7934 15.7866 15.6468 15.9732 15.6468C16.1532 15.6468 16.3066 15.7934 16.3066 15.9801C16.3066 16.1601 16.1532 16.3134 15.9732 16.3134C15.7866 16.3134 15.6399 16.1601 15.6399 15.9801ZM16.9732 15.9801C16.9732 15.4268 16.5199 14.9801 15.9732 14.9801C15.4199 14.9801 14.9732 15.4268 14.9732 15.9801C14.9732 16.5268 15.4199 16.9801 15.9732 16.9801C16.5199 16.9801 16.9732 16.5268 16.9732 15.9801Z" fill="#0783BE"/>
</svg>
