<svg width="32" height="32" viewBox="0 0 32 32" fill="none" xmlns="http://www.w3.org/2000/svg">
    <rect x="0.5" y="0.5" width="31" height="31" rx="15.5" fill="#EBF5FA"/>
    <rect x="0.5" y="0.5" width="31" height="31" rx="15.5" stroke="#A5D2E7"/>
    <path d="M23.5999 16.5266L22.2666 15.1932C21.9999 14.9266 21.5799 14.9266 21.3199 15.1866L19.9799 16.5199C19.7132 16.7799 19.7132 17.1999 19.9732 17.4599C20.2332 17.7199 20.6532 17.7199 20.9132 17.4599L22.2466 16.1266L21.2999 16.1199L22.6266 17.4532C22.8866 17.7132 23.3066 17.7132 23.5666 17.4532C23.8266 17.1866 23.8266 16.7666 23.5666 16.5066L23.5999 16.5266ZM21.3266 15.9932C21.3266 18.9332 18.9332 21.3266 15.9932 21.3266C13.0466 21.3266 10.6599 18.9332 10.6599 15.9932C10.6599 13.0466 13.0466 10.6599 15.9932 10.6599C17.8999 10.6599 19.6332 11.6666 20.5866 13.2799C20.7732 13.5932 21.1799 13.6999 21.4932 13.5132C21.8066 13.3199 21.9132 12.9132 21.7266 12.5999C20.5332 10.5799 18.3666 9.31323 15.9799 9.31323C12.2932 9.31323 9.31323 12.2932 9.31323 15.9799C9.31323 19.6599 12.2932 22.6466 15.9799 22.6466C19.6599 22.6466 22.6466 19.6599 22.6466 15.9799C22.6466 15.6066 22.3466 15.3132 21.9799 15.3132C21.6066 15.3132 21.3132 15.6066 21.3132 15.9799L21.3266 15.9932ZM15.3266 12.6599V15.9932C15.3266 16.2132 15.4332 16.4199 15.6199 16.5466L17.6199 17.8799C17.9199 18.0799 18.3399 17.9999 18.5399 17.6932C18.7399 17.3866 18.6599 16.9666 18.3532 16.7666L16.3532 15.4332L16.6466 15.9866V12.6532C16.6466 12.2799 16.3466 11.9866 15.9799 11.9866C15.6066 11.9866 15.3132 12.2799 15.3132 12.6532L15.3266 12.6599Z" fill="#0783BE"/>
</svg>
