<svg width="32" height="32" viewBox="0 0 32 32" fill="none" xmlns="http://www.w3.org/2000/svg">
    <rect x="0.5" y="0.5" width="31" height="31" rx="15.5" fill="#EBF5FA"/>
    <rect x="0.5" y="0.5" width="31" height="31" rx="15.5" stroke="#A5D2E7"/>
    <path fill-rule="evenodd" clip-rule="evenodd" d="M13.1724 9.33331H18.8275C19.3642 9.3333 19.8071 9.3333 20.1679 9.36278C20.5426 9.39339 20.8871 9.4591 21.2106 9.62396C21.7124 9.87963 22.1203 10.2876 22.376 10.7893C22.5409 11.1129 22.6066 11.4574 22.6372 11.8321C22.6667 12.1929 22.6667 12.6358 22.6666 13.1724V18.8275C22.6667 19.3642 22.6667 19.8071 22.6372 20.1679C22.6066 20.5426 22.5409 20.8871 22.376 21.2106C22.1203 21.7124 21.7124 22.1203 21.2106 22.376C20.8871 22.5409 20.5426 22.6066 20.1679 22.6372C19.8071 22.6667 19.3642 22.6667 18.8275 22.6666H13.1724C12.6358 22.6667 12.1929 22.6667 11.8321 22.6372C11.4574 22.6066 11.1129 22.5409 10.7893 22.376C10.2876 22.1203 9.87963 21.7124 9.62396 21.2106C9.4591 20.8871 9.39339 20.5426 9.36278 20.1679C9.3333 19.8071 9.3333 19.3642 9.33331 18.8275V13.1724C9.3333 12.6358 9.3333 12.1929 9.36278 11.8321C9.39339 11.4574 9.4591 11.1129 9.62396 10.7893C9.87963 10.2876 10.2876 9.87963 10.7893 9.62396C11.1129 9.4591 11.4574 9.39339 11.8321 9.36278C12.1929 9.3333 12.6358 9.3333 13.1724 9.33331ZM10.6666 14.6666V18.8C10.6666 19.371 10.6672 19.7592 10.6917 20.0593C10.7156 20.3516 10.7588 20.501 10.812 20.6053C10.9398 20.8562 11.1438 21.0602 11.3947 21.188C11.4989 21.2411 11.6484 21.2844 11.9407 21.3083C12.2407 21.3328 12.6289 21.3333 13.2 21.3333H18.8C19.371 21.3333 19.7592 21.3328 20.0593 21.3083C20.3516 21.2844 20.501 21.2411 20.6053 21.188C20.8562 21.0602 21.0602 20.8562 21.188 20.6053C21.2411 20.501 21.2844 20.3516 21.3083 20.0593C21.3328 19.7592 21.3333 19.371 21.3333 18.8V14.6666H10.6666ZM21.3333 13.3333H10.6666V13.2C10.6666 12.6289 10.6672 12.2407 10.6917 11.9407C10.7156 11.6484 10.7588 11.4989 10.812 11.3947C10.9398 11.1438 11.1438 10.9398 11.3947 10.812C11.4989 10.7588 11.6484 10.7156 11.9407 10.6917C12.2407 10.6672 12.6289 10.6666 13.2 10.6666H18.8C19.371 10.6666 19.7592 10.6672 20.0593 10.6917C20.3516 10.7156 20.501 10.7588 20.6053 10.812C20.8562 10.9398 21.0602 11.1438 21.188 11.3947C21.2411 11.4989 21.2844 11.6484 21.3083 11.9407C21.3328 12.2407 21.3333 12.6289 21.3333 13.2V13.3333ZM11.6666 16.6666C11.6666 16.2985 11.9651 16 12.3333 16H19.6666C20.0348 16 20.3333 16.2985 20.3333 16.6666C20.3333 17.0348 20.0348 17.3333 19.6666 17.3333H12.3333C11.9651 17.3333 11.6666 17.0348 11.6666 16.6666ZM11.6666 19.3333C11.6666 18.9651 11.9651 18.6666 12.3333 18.6666H19.6666C20.0348 18.6666 20.3333 18.9651 20.3333 19.3333C20.3333 19.7015 20.0348 20 19.6666 20H12.3333C11.9651 20 11.6666 19.7015 11.6666 19.3333Z" fill="#0783BE"/>
</svg>
