<svg width="32" height="32" viewBox="0 0 32 32" fill="none" xmlns="http://www.w3.org/2000/svg">
    <rect x="0.5" y="0.5" width="31" height="31" rx="15.5" fill="#EBF5FA"/>
    <rect x="0.5" y="0.5" width="31" height="31" rx="15.5" stroke="#A5D2E7"/>
    <path d="M21.3333 11.3334C21.3333 11.8667 18.9466 12.6667 15.9999 12.6667C13.0466 12.6667 10.6666 11.8667 10.6666 11.3334C10.6666 10.9601 10.3666 10.6667 9.99992 10.6667C9.62659 10.6667 9.33325 10.9601 9.33325 11.3334C9.33325 13.0001 12.3133 14.0001 15.9999 14.0001C19.6799 14.0001 22.6666 13.0001 22.6666 11.3334C22.6666 10.9601 22.3666 10.6667 21.9999 10.6667C21.6266 10.6667 21.3333 10.9601 21.3333 11.3334ZM22.6666 11.3334C22.6666 9.66008 19.6799 8.66675 15.9999 8.66675C12.3133 8.66675 9.33325 9.66008 9.33325 11.3334C9.33325 11.7001 9.62659 12.0001 9.99992 12.0001C10.3666 12.0001 10.6666 11.7001 10.6666 11.3334C10.6666 10.7934 13.0466 10.0001 15.9999 10.0001C18.9466 10.0001 21.3333 10.7934 21.3333 11.3334C21.3333 11.7001 21.6266 12.0001 21.9999 12.0001C22.3666 12.0001 22.6666 11.7001 22.6666 11.3334ZM21.3333 11.3334V20.6668C21.3333 21.2068 18.9599 22.0001 15.9999 22.0001C13.0333 22.0001 10.6666 21.2068 10.6666 20.6668V11.3334C10.6666 10.9601 10.3666 10.6667 9.99992 10.6667C9.62659 10.6667 9.33325 10.9601 9.33325 11.3334V20.6668C9.33325 22.3401 12.2999 23.3334 15.9999 23.3334C19.6933 23.3334 22.6666 22.3401 22.6666 20.6668V11.3334C22.6666 10.9601 22.3666 10.6667 21.9999 10.6667C21.6266 10.6667 21.3333 10.9601 21.3333 11.3334ZM21.3333 16.0001C21.3333 16.5401 18.9599 17.3334 15.9999 17.3334C13.0333 17.3334 10.6666 16.5401 10.6666 16.0001C10.6666 15.6268 10.3666 15.3334 9.99992 15.3334C9.62659 15.3334 9.33325 15.6268 9.33325 16.0001C9.33325 17.6734 12.2999 18.6668 15.9999 18.6668C19.6933 18.6668 22.6666 17.6734 22.6666 16.0001C22.6666 15.6268 22.3666 15.3334 21.9999 15.3334C21.6266 15.3334 21.3333 15.6268 21.3333 16.0001Z" fill="#0783BE"/>
</svg>
