<svg width="15" height="17" viewBox="0 0 15 17" fill="none" xmlns="http://www.w3.org/2000/svg">
<path fill-rule="evenodd" clip-rule="evenodd" d="M6.87109 5.99888e-07H8.12891H8.12894C8.52429 -1.21772e-05 8.86535 -2.31992e-05 9.14627 0.022929C9.44278 0.0471548 9.73769 0.100642 10.0215 0.245237C10.4448 0.460952 10.7891 0.805159 11.0048 1.22852C11.1494 1.51231 11.2028 1.80722 11.2271 2.10373C11.2476 2.35556 11.2498 2.65573 11.25 3H12.75H14.25C14.6642 3 15 3.33579 15 3.75C15 4.16421 14.6642 4.5 14.25 4.5H13.5V12.181V12.181C13.5 12.7847 13.5 13.283 13.4669 13.6889C13.4324 14.1104 13.3585 14.498 13.173 14.862C12.8854 15.4265 12.4265 15.8854 11.862 16.173C11.498 16.3585 11.1104 16.4324 10.6889 16.4669C10.283 16.5 9.78471 16.5 9.18099 16.5H5.81901C5.21529 16.5 4.71702 16.5 4.31113 16.4669C3.88956 16.4324 3.50203 16.3585 3.13803 16.173C2.57354 15.8854 2.1146 15.4265 1.82698 14.862C1.64151 14.498 1.56759 14.1104 1.53315 13.6889C1.49998 13.283 1.49999 12.7847 1.5 12.181L1.5 4.5H0.75C0.335786 4.5 0 4.16421 0 3.75C0 3.33579 0.335786 3 0.75 3H2.25H3.75002C3.75023 2.65573 3.75235 2.35556 3.77293 2.10373C3.79715 1.80722 3.85064 1.51231 3.99524 1.22852C4.21095 0.805159 4.55516 0.460952 4.97852 0.245237C5.26231 0.100642 5.55722 0.0471548 5.85373 0.022929C6.13465 -2.31992e-05 6.47571 -1.21772e-05 6.87106 5.99888e-07H6.87109ZM3 4.5V12.15C3 12.7924 3.00058 13.2292 3.02816 13.5667C3.05503 13.8955 3.10372 14.0637 3.16349 14.181C3.3073 14.4632 3.53677 14.6927 3.81902 14.8365C3.93631 14.8963 4.10447 14.945 4.43328 14.9718C4.77085 14.9994 5.20757 15 5.85 15H9.15C9.79244 15 10.2292 14.9994 10.5667 14.9718C10.8955 14.945 11.0637 14.8963 11.181 14.8365C11.4632 14.6927 11.6927 14.4632 11.8365 14.181C11.8963 14.0637 11.945 13.8955 11.9718 13.5667C11.9994 13.2292 12 12.7924 12 12.15V4.5H10.5015L10.5 4.5L10.4985 4.5H4.50148L4.5 4.5L4.49852 4.5H3ZM9.73206 2.22588C9.74732 2.41274 9.74962 2.65117 9.74995 3H5.25006C5.25039 2.65117 5.25268 2.41274 5.26795 2.22588C5.28459 2.02213 5.31285 1.94659 5.33175 1.90951C5.40365 1.76839 5.51839 1.65365 5.65951 1.58175C5.69659 1.56285 5.77213 1.53459 5.97588 1.51795C6.18838 1.50059 6.46759 1.5 6.9 1.5H8.1C8.53242 1.5 8.81162 1.50059 9.02412 1.51795C9.22787 1.53459 9.30341 1.56285 9.34049 1.58175C9.48162 1.65365 9.59635 1.76839 9.66826 1.90951C9.68715 1.94659 9.71541 2.02213 9.73206 2.22588ZM6 7.125C6.41421 7.125 6.75 7.46079 6.75 7.875V11.625C6.75 12.0392 6.41421 12.375 6 12.375C5.58579 12.375 5.25 12.0392 5.25 11.625V7.875C5.25 7.46079 5.58579 7.125 6 7.125ZM9.75 7.875C9.75 7.46079 9.41421 7.125 9 7.125C8.58579 7.125 8.25 7.46079 8.25 7.875V11.625C8.25 12.0392 8.58579 12.375 9 12.375C9.41421 12.375 9.75 12.0392 9.75 11.625V7.875Z" fill="#006BD6"/>
</svg>
