<svg width="40" height="40" viewBox="0 0 40 40" fill="none" xmlns="http://www.w3.org/2000/svg">
<path d="M20 0.5C30.7696 0.5 39.5 9.23045 39.5 20C39.5 30.7696 30.7696 39.5 20 39.5C9.23045 39.5 0.5 30.7696 0.5 20C0.5 9.23045 9.23045 0.5 20 0.5Z" fill="#FCE7EC"/>
<path d="M20 0.5C30.7696 0.5 39.5 9.23045 39.5 20C39.5 30.7696 30.7696 39.5 20 39.5C9.23045 39.5 0.5 30.7696 0.5 20C0.5 9.23045 9.23045 0.5 20 0.5Z" stroke="#F4B0C0"/>
<path fill-rule="evenodd" clip-rule="evenodd" d="M19.8567 11.1113H21.2543H21.2543C21.6936 11.1113 22.0726 11.1113 22.3847 11.1368C22.7141 11.1637 23.0418 11.2232 23.3571 11.3838C23.8275 11.6235 24.21 12.0059 24.4497 12.4764C24.6103 12.7917 24.6698 13.1194 24.6967 13.4488C24.7196 13.7286 24.7219 14.0621 24.7221 14.4447H26.3888H28.0555C28.5157 14.4447 28.8888 14.8178 28.8888 15.278C28.8888 15.7382 28.5157 16.1113 28.0555 16.1113H27.2222V24.6457V24.6458C27.2222 25.3166 27.2222 25.8702 27.1853 26.3212C27.1471 26.7896 27.0649 27.2202 26.8589 27.6246C26.5393 28.2518 26.0293 28.7618 25.4021 29.0814C24.9977 29.2874 24.5671 29.3696 24.0987 29.4078C23.6477 29.4447 23.0941 29.4447 22.4233 29.4447H18.6877C18.0169 29.4447 17.4633 29.4447 17.0123 29.4078C16.5439 29.3696 16.1133 29.2874 15.7089 29.0814C15.0817 28.7618 14.5717 28.2518 14.2521 27.6246C14.0461 27.2202 13.9639 26.7896 13.9257 26.3212C13.8888 25.8702 13.8888 25.3166 13.8888 24.6457L13.8888 16.1113H13.0555C12.5953 16.1113 12.2222 15.7382 12.2222 15.278C12.2222 14.8178 12.5953 14.4447 13.0555 14.4447H14.7222H16.3889C16.3891 14.0621 16.3914 13.7286 16.4143 13.4488C16.4412 13.1194 16.5007 12.7917 16.6613 12.4764C16.901 12.0059 17.2835 11.6235 17.7539 11.3838C18.0692 11.2232 18.3969 11.1637 18.7263 11.1368C19.0384 11.1113 19.4174 11.1113 19.8567 11.1113H19.8567ZM15.5555 16.1113V24.6113C15.5555 25.3251 15.5561 25.8104 15.5868 26.1855C15.6166 26.5508 15.6707 26.7376 15.7372 26.868C15.8969 27.1816 16.1519 27.4366 16.4655 27.5963C16.5959 27.6627 16.7827 27.7169 17.148 27.7467C17.5231 27.7773 18.0084 27.778 18.7222 27.778H22.3888C23.1027 27.778 23.5879 27.7773 23.963 27.7467C24.3283 27.7169 24.5152 27.6627 24.6455 27.5963C24.9591 27.4366 25.2141 27.1816 25.3738 26.868C25.4403 26.7376 25.4944 26.5508 25.5242 26.1855C25.5549 25.8104 25.5555 25.3251 25.5555 24.6113V16.1113H23.8905L23.8888 16.1113L23.8872 16.1113H17.2238L17.2222 16.1113L17.2205 16.1113H15.5555ZM23.0356 13.5845C23.0525 13.7921 23.0551 14.0571 23.0554 14.4447H18.0556C18.0559 14.0571 18.0585 13.7921 18.0754 13.5845C18.0939 13.3581 18.1253 13.2742 18.1463 13.233C18.2262 13.0762 18.3537 12.9487 18.5105 12.8688C18.5517 12.8478 18.6356 12.8164 18.862 12.7979C19.0981 12.7786 19.4084 12.778 19.8888 12.778H21.2222C21.7026 12.778 22.0129 12.7786 22.249 12.7979C22.4754 12.8164 22.5593 12.8478 22.6005 12.8688C22.7573 12.9487 22.8848 13.0762 22.9647 13.233C22.9857 13.2742 23.0171 13.3581 23.0356 13.5845ZM18.8888 19.028C19.3491 19.028 19.7222 19.4011 19.7222 19.8613V24.028C19.7222 24.4882 19.3491 24.8613 18.8888 24.8613C18.4286 24.8613 18.0555 24.4882 18.0555 24.028V19.8613C18.0555 19.4011 18.4286 19.028 18.8888 19.028ZM23.0555 19.8613C23.0555 19.4011 22.6824 19.028 22.2222 19.028C21.7619 19.028 21.3888 19.4011 21.3888 19.8613V24.028C21.3888 24.4882 21.7619 24.8613 22.2222 24.8613C22.6824 24.8613 23.0555 24.4882 23.0555 24.028V19.8613Z" fill="#E33962"/>
</svg>
