<svg width="20" height="20" viewBox="0 0 20 20" fill="none" xmlns="http://www.w3.org/2000/svg">
    <path fill-rule="evenodd" clip-rule="evenodd" d="M10 1.25C15.1086 1.25 19.25 5.39137 19.25 10.5C19.25 15.6086 15.1086 19.75 10 19.75C4.89137 19.75 0.75 15.6086 0.75 10.5C0.75 5.39137 4.89137 1.25 10 1.25ZM10 2.75C5.71979 2.75 2.25 6.21979 2.25 10.5C2.25 14.7802 5.71979 18.25 10 18.25C14.2802 18.25 17.75 14.7802 17.75 10.5C17.75 6.21979 14.2802 2.75 10 2.75ZM10 5.25C11.5188 5.25 12.75 6.48122 12.75 8C12.75 9.01878 12.2812 9.65625 11.5312 10.1875C11.1562 10.4531 10.75 10.6562 10.75 11.25C10.75 11.6642 10.4142 12 10 12C9.58579 12 9.25 11.6642 9.25 11.25C9.25 10.0938 9.84375 9.54688 10.4688 9.0625C10.9688 8.67188 11.25 8.4375 11.25 8C11.25 7.30964 10.6904 6.75 10 6.75C9.30964 6.75 8.75 7.30964 8.75 8C8.75 8.41421 8.41421 8.75 8 8.75C7.58579 8.75 7.25 8.41421 7.25 8C7.25 6.48122 8.48122 5.25 10 5.25ZM10 15.25C10.5523 15.25 11 14.8023 11 14.25C11 13.6977 10.5523 13.25 10 13.25C9.44772 13.25 9 13.6977 9 14.25C9 14.8023 9.44772 15.25 10 15.25Z" fill="#73858C"/>
</svg>
