<svg width="16" height="15" viewBox="0 0 16 15" fill="none" xmlns="http://www.w3.org/2000/svg">
<path fill-rule="evenodd" clip-rule="evenodd" d="M10.8201 0.717164C11.7763 -0.239054 13.3266 -0.239055 14.2829 0.717164C15.2391 1.67338 15.2391 3.22372 14.2829 4.17994L4.42788 14.0349C4.41235 14.0504 4.39696 14.0659 4.38169 14.0812C4.1562 14.3071 3.95739 14.5062 3.71771 14.6531C3.50715 14.7822 3.27759 14.8772 3.03746 14.9349C2.76412 15.0005 2.4827 15.0003 2.16351 15C2.1419 14.9999 2.12012 14.9999 2.09815 14.9999H0.784541C0.351295 14.9999 7.98192e-05 14.6487 7.98192e-05 14.2155V12.9019C7.98192e-05 12.8799 5.95265e-05 12.8581 3.94207e-05 12.8365C-0.000257583 12.5173 -0.000519423 12.2359 0.0651041 11.9626C0.122754 11.7224 0.217841 11.4929 0.346875 11.2823C0.493753 11.0426 0.692933 10.8438 0.918844 10.6183C0.934139 10.6031 0.949556 10.5877 0.965087 10.5721L10.8201 0.717164ZM13.1735 1.82656C12.8299 1.48304 12.273 1.48304 11.9295 1.82656L2.07448 11.6815C1.77673 11.9793 1.72183 12.0413 1.6846 12.1021C1.64159 12.1723 1.60989 12.2488 1.59068 12.3288C1.57404 12.3981 1.569 12.4808 1.569 12.9019V13.431H2.09815C2.51924 13.431 2.60192 13.426 2.6712 13.4093C2.75125 13.3901 2.82777 13.3584 2.89795 13.3154C2.95871 13.2782 3.02074 13.2233 3.31849 12.9255L13.1735 3.07055C13.517 2.72703 13.517 2.17008 13.1735 1.82656ZM7.06021 14.2155C7.06021 13.7822 7.41142 13.431 7.84467 13.431H14.9048C15.3381 13.431 15.6893 13.7822 15.6893 14.2155C15.6893 14.6487 15.3381 14.9999 14.9048 14.9999H7.84467C7.41142 14.9999 7.06021 14.6487 7.06021 14.2155Z" fill="#006BD6"/>
</svg>
