<svg xmlns="http://www.w3.org/2000/svg" width="17" height="17" viewBox="0 0 17 17" fill="none">
  <path d="M8.25 0C3.69 0 0 3.69 0 8.25C0 12.8025 3.69 16.5 8.25 16.5C12.8025 16.5 16.5 12.8025 16.5 8.25C16.5 3.69 12.8025 0 8.25 0ZM8.25 15C4.515 15 1.5 11.9775 1.5 8.25C1.5 4.515 4.515 1.5 8.25 1.5C11.9775 1.5 15 4.515 15 8.25C15 11.9775 11.9775 15 8.25 15ZM11.0325 4.7175C10.7325 4.4175 10.2375 4.4175 9.9375 4.7175L8.25 6.405L6.5625 4.7175C6.2625 4.4175 5.7675 4.4175 5.4675 4.7175C5.1675 5.0175 5.1675 5.5125 5.4675 5.8125L7.155 7.5L5.4675 9.1875C5.1675 9.4875 5.1675 9.9825 5.4675 10.2825C5.7675 10.5825 6.2625 10.5825 6.5625 10.2825L8.25 8.595L9.9375 10.2825C10.2375 10.5825 10.7325 10.5825 11.0325 10.2825C11.3325 9.9825 11.3325 9.4875 11.0325 9.1875L9.345 7.5L11.0325 5.8125C11.325 5.5125 11.325 5.0175 11.0325 4.7175Z" fill="#d21b46"/>
</svg>
