<svg width="16" height="16" viewBox="0 0 16 16" fill="none" xmlns="http://www.w3.org/2000/svg">
<path d="M14.2356 5.62225V1.62225C14.2356 1.24892 13.9356 0.955583 13.5689 0.955583C13.1956 0.955583 12.9022 1.24892 12.9022 1.62225V5.62225C12.9022 5.98892 13.1956 6.28892 13.5689 6.28892C13.9356 6.28892 14.2356 5.98892 14.2356 5.62225ZM13.5689 0.955583H9.56892C9.19558 0.955583 8.90225 1.24892 8.90225 1.62225C8.90225 1.98892 9.19558 2.28892 9.56892 2.28892H13.5689C13.9356 2.28892 14.2356 1.98892 14.2356 1.62225C14.2356 1.24892 13.9356 0.955583 13.5689 0.955583ZM13.0956 1.14892L7.09558 7.14225C6.82891 7.40225 6.82891 7.82225 7.08891 8.08225C7.34891 8.34225 7.76891 8.34225 8.02891 8.08225L14.0289 2.08225C14.2889 1.81558 14.2889 1.39558 14.0289 1.13558C13.7622 0.868916 13.3422 0.868916 13.0822 1.12892L13.0956 1.14892ZM6.22892 0.948916H4.76225C3.22225 0.948916 2.86225 0.975583 2.34892 1.23558C1.84225 1.48892 1.43558 1.89558 1.18225 2.39558C0.915583 2.90225 0.888916 3.26892 0.888916 4.80225V10.4022C0.888916 11.9356 0.915583 12.2956 1.17558 12.8089C1.42892 13.3089 1.83558 13.7156 2.33558 13.9689C2.84225 14.2289 3.20892 14.2556 4.74225 14.2556H10.3422C11.8756 14.2556 12.2356 14.2222 12.7489 13.9622C13.2489 13.7022 13.6556 13.2956 13.9089 12.7956C14.1689 12.2822 14.1956 11.9156 14.1956 10.3822V8.91558C14.1956 8.54225 13.8956 8.24892 13.5289 8.24892C13.1556 8.24892 12.8622 8.54225 12.8622 8.91558V10.3822C12.8622 11.6422 12.8356 11.9489 12.7156 12.1822C12.5822 12.4289 12.3822 12.6356 12.1289 12.7622C11.8889 12.8822 11.5889 12.9022 10.3222 12.9022H4.72225C3.45558 12.9022 3.14892 12.8756 2.91558 12.7556C2.66225 12.6222 2.45558 12.4222 2.32892 12.1689C2.20225 11.9289 2.18225 11.6289 2.18225 10.3622V4.76225C2.18225 3.49558 2.20225 3.18892 2.32225 2.95558C2.44892 2.70225 2.64892 2.49558 2.90225 2.36892C3.13558 2.24225 3.43558 2.22225 4.70225 2.22225H6.16891C6.53558 2.22225 6.83558 1.92225 6.83558 1.55558C6.83558 1.18225 6.53558 0.888916 6.16891 0.888916L6.22892 0.948916Z" fill="#0783BE"/>
</svg>
