<svg width="32" height="32" viewBox="0 0 32 32" fill="none" xmlns="http://www.w3.org/2000/svg">
    <rect x="0.5" y="0.5" width="31" height="31" rx="15.5" fill="#EBF5FA"/>
    <rect x="0.5" y="0.5" width="31" height="31" rx="15.5" stroke="#A5D2E7"/>
    <g clip-path="url(#clip0_2782_67126)">
        <g clip-path="url(#clip1_2782_67126)">
            <path fill-rule="evenodd" clip-rule="evenodd" d="M16.0001 9.88897C15.838 9.88897 15.6826 9.95335 15.568 10.068C15.4534 10.1826 15.389 10.338 15.389 10.5001V10.6064C15.3877 10.9222 15.2941 11.2308 15.1197 11.4941C14.9454 11.7574 14.6978 11.964 14.4075 12.0884C14.3558 12.1106 14.3014 12.1255 14.246 12.1327C13.9822 12.2251 13.6982 12.2478 13.4218 12.1977C13.1034 12.14 12.8096 11.9882 12.5783 11.7619L12.5735 11.7572L12.5368 11.7205C12.4801 11.6637 12.4125 11.6184 12.3383 11.5876C12.2641 11.5569 12.1846 11.5411 12.1042 11.5411C12.0239 11.5411 11.9444 11.5569 11.8702 11.5876C11.796 11.6184 11.7286 11.6635 11.6719 11.7203L11.6714 11.7208C11.6146 11.7775 11.5695 11.8449 11.5388 11.9191C11.508 11.9933 11.4922 12.0728 11.4922 12.1531C11.4922 12.2334 11.508 12.313 11.5388 12.3872C11.5695 12.4613 11.6146 12.5287 11.6714 12.5855L11.7131 12.6272C11.9393 12.8585 12.0911 13.1523 12.1488 13.4707C12.2054 13.7827 12.1691 14.1044 12.0446 14.3958C11.9312 14.6931 11.7327 14.9506 11.4736 15.1359C11.2093 15.3249 10.8942 15.4301 10.5694 15.4377L10.5551 15.4379H10.5001C10.338 15.4379 10.1826 15.5022 10.068 15.6168C9.95335 15.7315 9.88897 15.8869 9.88897 16.049C9.88897 16.211 9.95335 16.3665 10.068 16.4811C10.1826 16.5957 10.338 16.6601 10.5001 16.6601H10.6064C10.9222 16.6613 11.2308 16.7549 11.4941 16.9293C11.7565 17.1031 11.9626 17.3496 12.0871 17.6385C12.2167 17.9338 12.2553 18.261 12.1977 18.5784C12.14 18.8967 11.9882 19.1905 11.7619 19.4219L11.7572 19.4267L11.7205 19.4633C11.6637 19.5201 11.6184 19.5877 11.5876 19.6619C11.5569 19.7361 11.5411 19.8156 11.5411 19.8959C11.5411 19.9762 11.5569 20.0557 11.5876 20.1299C11.6184 20.2041 11.6635 20.2715 11.7203 20.3283L11.7208 20.3288C11.7775 20.3856 11.8449 20.4306 11.9191 20.4614C11.9933 20.4922 12.0728 20.508 12.1531 20.508C12.2334 20.508 12.313 20.4922 12.3872 20.4614C12.4613 20.4306 12.5287 20.3856 12.5855 20.3288L12.6272 20.2871C12.8585 20.0608 13.1523 19.9091 13.4707 19.8513C13.7827 19.7947 14.1044 19.8311 14.3958 19.9555C14.6931 20.0689 14.9506 20.2675 15.1359 20.5266C15.3249 20.7909 15.4301 21.1059 15.4377 21.4308L15.4379 21.4451V21.5001C15.4379 21.6622 15.5022 21.8176 15.6168 21.9322C15.7315 22.0468 15.8869 22.1112 16.049 22.1112C16.211 22.1112 16.3665 22.0468 16.4811 21.9322C16.5957 21.8176 16.6601 21.6622 16.6601 21.5001V21.3962L16.6601 21.3938C16.6613 21.0779 16.7549 20.7694 16.9293 20.506C17.1031 20.2436 17.3496 20.0375 17.6386 19.913C17.9338 19.7834 18.2611 19.7449 18.5784 19.8024C18.8967 19.8602 19.1905 20.012 19.4219 20.2382L19.4267 20.2429L19.4633 20.2796C19.5201 20.3364 19.5877 20.3818 19.6619 20.4125C19.7361 20.4433 19.8156 20.4591 19.8959 20.4591C19.9762 20.4591 20.0557 20.4433 20.1299 20.4125C20.2041 20.3818 20.2715 20.3367 20.3283 20.2799L20.3288 20.2794C20.3856 20.2226 20.4306 20.1552 20.4614 20.081C20.4922 20.0069 20.508 19.9273 20.508 19.847C20.508 19.7667 20.4922 19.6872 20.4614 19.613C20.4306 19.5388 20.3856 19.4714 20.3288 19.4147L20.2871 19.373C20.0608 19.1417 19.9091 18.8479 19.8513 18.5295C19.7938 18.2122 19.8323 17.885 19.9619 17.5897C20.0864 17.3007 20.2925 17.0542 20.5549 16.8804C20.8182 16.706 21.1268 16.6125 21.4426 16.6112L21.4451 16.6112L21.5001 16.6112C21.6622 16.6112 21.8176 16.5468 21.9322 16.4322C22.0468 16.3176 22.1112 16.1622 22.1112 16.0001C22.1112 15.838 22.0468 15.6826 21.9322 15.568C21.8176 15.4534 21.6622 15.389 21.5001 15.389H21.3962L21.3938 15.389C21.0779 15.3877 20.7694 15.2941 20.506 15.1197C20.2427 14.9454 20.0361 14.6978 19.9117 14.4075C19.8896 14.3558 19.8747 14.3014 19.8675 14.246C19.7751 13.9822 19.7523 13.6982 19.8024 13.4218C19.8602 13.1034 20.012 12.8096 20.2382 12.5783L20.2429 12.5735L20.2796 12.5369C20.3364 12.4801 20.3818 12.4125 20.4125 12.3383C20.4433 12.2641 20.4591 12.1846 20.4591 12.1042C20.4591 12.0239 20.4433 11.9444 20.4125 11.8702C20.3818 11.796 20.3367 11.7286 20.2799 11.6719L20.2794 11.6714C20.2226 11.6146 20.1552 11.5695 20.081 11.5388C20.0069 11.508 19.9273 11.4922 19.847 11.4922C19.7667 11.4922 19.6872 11.508 19.613 11.5388C19.5388 11.5695 19.4714 11.6146 19.4147 11.6714L19.373 11.7131C19.1417 11.9393 18.8479 12.0911 18.5295 12.1488C18.2122 12.2064 17.8849 12.1679 17.5897 12.0383C17.3007 11.9137 17.0542 11.7076 16.8804 11.4452C16.706 11.1819 16.6125 10.8733 16.6112 10.5575L16.6112 10.5551V10.5001C16.6112 10.338 16.5468 10.1826 16.4322 10.068C16.3176 9.95335 16.1622 9.88897 16.0001 9.88897ZM14.7037 9.20372C15.0475 8.8599 15.5139 8.66675 16.0001 8.66675C16.4863 8.66675 16.9526 8.8599 17.2964 9.20372C17.6403 9.54754 17.8334 10.0139 17.8334 10.5001V10.5536C17.8339 10.6307 17.8568 10.7061 17.8994 10.7704C17.9422 10.835 18.0029 10.8856 18.0742 10.9162L18.0802 10.9187C18.1528 10.9508 18.2333 10.9604 18.3114 10.9462C18.3887 10.9322 18.46 10.8956 18.5164 10.8411L18.5499 10.8076C18.7202 10.6372 18.9224 10.502 19.145 10.4097C19.3675 10.3174 19.6061 10.27 19.847 10.27C20.088 10.27 20.3265 10.3174 20.5491 10.4097C20.7716 10.502 20.9738 10.6372 21.1441 10.8076C21.3143 10.9778 21.4494 11.1798 21.5416 11.4022C21.6338 11.6248 21.6813 11.8633 21.6813 12.1042C21.6813 12.3452 21.6338 12.5837 21.5416 12.8063C21.4494 13.0288 21.3142 13.2309 21.1439 13.4011C21.1438 13.4012 21.144 13.401 21.1439 13.4011L21.1101 13.4348C21.0556 13.4913 21.0191 13.5626 21.0051 13.6399C20.9909 13.718 21.0005 13.7985 21.0325 13.8711C21.0498 13.9102 21.0628 13.951 21.0716 13.9926C21.1005 14.0352 21.1375 14.072 21.1809 14.1007C21.2452 14.1433 21.3206 14.1663 21.3977 14.1667H21.5001C21.9863 14.1667 22.4526 14.3599 22.7964 14.7037C23.1403 15.0475 23.3334 15.5139 23.3334 16.0001C23.3334 16.4863 23.1403 16.9526 22.7964 17.2964C22.4526 17.6403 21.9863 17.8334 21.5001 17.8334H21.4466C21.3695 17.8339 21.2941 17.8568 21.2298 17.8994C21.1652 17.9422 21.1145 18.0029 21.084 18.0742L21.0814 18.0802C21.0494 18.1528 21.0398 18.2333 21.0539 18.3114C21.0679 18.3886 21.1045 18.46 21.159 18.5164L21.1925 18.5499C21.1924 18.5499 21.1926 18.55 21.1925 18.5499C21.3629 18.7202 21.4982 18.9225 21.5905 19.145C21.6827 19.3675 21.7302 19.6061 21.7302 19.847C21.7302 20.088 21.6827 20.3265 21.5905 20.5491C21.4982 20.7716 21.363 20.9738 21.1925 21.1441L20.7606 20.7117L21.193 21.1436C21.0227 21.3141 20.8205 21.4493 20.598 21.5416C20.3754 21.6338 20.1368 21.6813 19.8959 21.6813C19.655 21.6813 19.4164 21.6338 19.1939 21.5416C18.9714 21.4494 18.7693 21.3142 18.5991 21.1439C18.599 21.1438 18.5992 21.1439 18.5991 21.1439L18.5653 21.1101C18.5089 21.0556 18.4375 21.0191 18.3603 21.0051C18.2822 20.9909 18.2017 21.0005 18.129 21.0325L18.1231 21.0351C18.0519 21.0657 17.9911 21.1163 17.9483 21.1809C17.9057 21.2452 17.8828 21.3206 17.8823 21.3977V21.5001C17.8823 21.9863 17.6891 22.4526 17.3453 22.7964C17.0015 23.1403 16.5352 23.3334 16.049 23.3334C15.5627 23.3334 15.0964 23.1403 14.7526 22.7964C14.4088 22.4526 14.2156 21.9863 14.2156 21.5001V21.4539C14.2127 21.3761 14.1871 21.3009 14.1418 21.2376C14.0954 21.1727 14.0306 21.1234 13.9558 21.0959C13.9437 21.0914 13.9318 21.0866 13.92 21.0814C13.8474 21.0493 13.7668 21.0398 13.6887 21.0539C13.6115 21.0679 13.5402 21.1045 13.4837 21.159L13.4502 21.1925C13.4501 21.1926 13.4503 21.1924 13.4502 21.1925C13.28 21.3629 13.0777 21.4982 12.8552 21.5905C12.6326 21.6827 12.3941 21.7302 12.1531 21.7302C11.9122 21.7302 11.6736 21.6827 11.4511 21.5905C11.2287 21.4983 11.0267 21.3632 10.8565 21.193C10.6861 21.0227 10.5509 20.8205 10.4586 20.598C10.3663 20.3754 10.3188 20.1368 10.3188 19.8959C10.3188 19.655 10.3663 19.4164 10.4586 19.1939C10.5509 18.9713 10.6861 18.7691 10.8565 18.5988L10.89 18.5653C10.9445 18.5089 10.9811 18.4375 10.9951 18.3603C11.0093 18.2822 10.9997 18.2017 10.9677 18.129L10.965 18.1231C10.9345 18.0518 10.8839 17.9911 10.8193 17.9483C10.7549 17.9057 10.6796 17.8828 10.6024 17.8823H10.5001C10.0139 17.8823 9.54754 17.6891 9.20372 17.3453C8.8599 17.0015 8.66675 16.5352 8.66675 16.049C8.66675 15.5627 8.8599 15.0964 9.20372 14.7526C9.54754 14.4088 10.0139 14.2156 10.5001 14.2156H10.5463C10.624 14.2127 10.6993 14.1871 10.7626 14.1418C10.8274 14.0954 10.8768 14.0306 10.9043 13.9558C10.9088 13.9437 10.9136 13.9318 10.9188 13.92C10.9508 13.8474 10.9604 13.7668 10.9462 13.6887C10.9322 13.6115 10.8956 13.5402 10.8411 13.4837L10.8076 13.4502C10.6372 13.28 10.502 13.0778 10.4097 12.8552C10.3174 12.6326 10.27 12.3941 10.27 12.1531C10.27 11.9122 10.3174 11.6736 10.4097 11.4511C10.5019 11.2286 10.6371 11.0265 10.8074 10.8563C10.9776 10.686 11.1797 10.5508 11.4022 10.4586C11.6248 10.3663 11.8633 10.3188 12.1042 10.3188C12.3452 10.3188 12.5837 10.3663 12.8063 10.4586C13.0289 10.5509 13.2311 10.6861 13.4013 10.8565L13.4348 10.89C13.4913 10.9445 13.5626 10.9811 13.6399 10.9951C13.718 11.0093 13.7985 10.9997 13.8711 10.9677C13.9102 10.9504 13.951 10.9373 13.9926 10.9286C14.0352 10.8997 14.072 10.8626 14.1007 10.8193C14.1433 10.7549 14.1663 10.6796 14.1667 10.6024V10.5001C14.1667 10.0139 14.3599 9.54754 14.7037 9.20372ZM16.0001 14.7779C15.3251 14.7779 14.7779 15.3251 14.7779 16.0001C14.7779 16.6751 15.3251 17.2223 16.0001 17.2223C16.6751 17.2223 17.2223 16.6751 17.2223 16.0001C17.2223 15.3251 16.6751 14.7779 16.0001 14.7779ZM13.5556 16.0001C13.5556 14.6501 14.6501 13.5556 16.0001 13.5556C17.3501 13.5556 18.4445 14.6501 18.4445 16.0001C18.4445 17.3501 17.3501 18.4445 16.0001 18.4445C14.6501 18.4445 13.5556 17.3501 13.5556 16.0001Z" fill="#0783BE"/>
        </g>
    </g>
    <defs>
        <clipPath id="clip0_2782_67126">
            <rect width="16" height="16" fill="white" transform="translate(8 8)"/>
        </clipPath>
        <clipPath id="clip1_2782_67126">
            <rect width="16" height="16" fill="white" transform="translate(8 8)"/>
        </clipPath>
    </defs>
</svg>
