<svg width="32" height="32" viewBox="0 0 32 32" fill="none" xmlns="http://www.w3.org/2000/svg">
    <rect x="0.5" y="0.5" width="31" height="31" rx="15.5" fill="#EBF5FA"/>
    <rect x="0.5" y="0.5" width="31" height="31" rx="15.5" stroke="#A5D2E7"/>
    <g clip-path="url(#clip0_2782_66527)">
        <path fill-rule="evenodd" clip-rule="evenodd" d="M10.0366 15.3334H12.7001C12.8496 13.4913 13.4661 11.723 14.4838 10.1933C12.1126 10.8107 10.312 12.8422 10.0366 15.3334ZM16 10.3673C14.8869 11.8014 14.2059 13.5246 14.0384 15.3334H17.9616C17.7942 13.5246 17.1131 11.8014 16 10.3673ZM17.9616 16.6667C17.7942 18.4755 17.1131 20.1988 16 21.6329C14.8869 20.1988 14.2059 18.4755 14.0384 16.6667H17.9616ZM12.7001 16.6667H10.0366C10.312 19.1579 12.1126 21.1894 14.4838 21.8069C13.4661 20.2771 12.8496 18.5089 12.7001 16.6667ZM17.5162 21.8069C18.534 20.2771 19.1505 18.5089 19.3 16.6667H21.9634C21.688 19.1579 19.8875 21.1894 17.5162 21.8069ZM21.9634 15.3334H19.3C19.1505 13.4913 18.534 11.723 17.5162 10.1933C19.8875 10.8107 21.688 12.8422 21.9634 15.3334ZM8.66669 16.0001C8.66669 11.95 11.9499 8.66675 16 8.66675C20.0501 8.66675 23.3334 11.95 23.3334 16.0001C23.3334 20.0502 20.0501 23.3334 16 23.3334C11.9499 23.3334 8.66669 20.0502 8.66669 16.0001Z" fill="#0783BE"/>
    </g>
    <defs>
        <clipPath id="clip0_2782_66527">
            <rect width="16" height="16" fill="white" transform="translate(8 8)"/>
        </clipPath>
    </defs>
</svg>
