<svg width="32" height="32" viewBox="0 0 32 32" fill="none" xmlns="http://www.w3.org/2000/svg">
    <rect x="0.5" y="0.5" width="31" height="31" rx="15.5" fill="#EBF5FA"/>
    <rect x="0.5" y="0.5" width="31" height="31" rx="15.5" stroke="#A5D2E7"/>
    <path fill-rule="evenodd" clip-rule="evenodd" d="M12.056 12.0008C12.0812 11.9996 12.1066 11.9998 12.1322 12.0015C13.3804 12.084 14.5344 12.7059 15.2895 13.689C15.5138 13.981 15.4589 14.3995 15.1669 14.6238C14.8749 14.8481 14.4564 14.7932 14.2321 14.5012C13.7156 13.8288 12.9265 13.399 12.0741 13.334C10.5422 13.3417 9.33333 14.5486 9.33333 16.0003C9.33333 17.4512 10.5508 18.6667 12.0889 18.6667C12.9993 18.6667 13.8055 18.0375 14.4422 17.2482C14.7488 16.8682 14.9883 16.4846 15.1515 16.1944C15.2327 16.05 15.2939 15.9307 15.3341 15.849C15.3542 15.8083 15.369 15.777 15.3783 15.7569L15.3882 15.7354L15.3899 15.7315C15.3899 15.7316 15.3898 15.7318 16 16.0003C16.6102 16.2688 16.6101 16.269 16.61 16.2692L16.61 16.2694L16.6099 16.2694L16.6098 16.2697L16.6098 16.2697L16.6093 16.2709L16.6078 16.2742L16.6032 16.2844C16.5995 16.2928 16.5942 16.3042 16.5876 16.3186C16.5742 16.3473 16.5551 16.3877 16.5303 16.4381C16.4807 16.5387 16.4083 16.6797 16.3137 16.8479C16.1256 17.1825 15.8456 17.6322 15.48 18.0854C14.7722 18.9627 13.6229 20 12.0889 20C9.8462 20 8 18.2189 8 16.0003C8 13.7855 9.82897 12.018 12.056 12.0008ZM19.9329 18.6666C21.4551 18.6551 22.6667 17.4435 22.6667 16.0003C22.6667 14.5447 21.4443 13.334 19.9111 13.334C19.0007 13.334 18.1945 13.9632 17.5578 14.7524C17.2512 15.1324 17.0117 15.516 16.8485 15.8063C16.7673 15.9506 16.7061 16.07 16.6659 16.1516C16.6458 16.1924 16.631 16.2236 16.6217 16.2437L16.6118 16.2653L16.6102 16.2688L16.6101 16.2692C16.6101 16.269 16.6102 16.2688 16 16.0003C15.3898 15.7318 15.3899 15.7316 15.39 15.7314L15.39 15.7313L15.3901 15.7312L15.3902 15.7309L15.3902 15.7309L15.3907 15.7297L15.3922 15.7264L15.3968 15.7162C15.4005 15.7079 15.4058 15.6964 15.4124 15.6821C15.4258 15.6533 15.4449 15.613 15.4697 15.5626C15.5193 15.462 15.5917 15.3209 15.6863 15.1528C15.8744 14.8181 16.1544 14.3685 16.52 13.9152C17.2278 13.0379 18.3771 12.0006 19.9111 12.0006C22.1456 12.0006 24 13.7737 24 16.0003C24 18.2198 22.1464 20 19.9111 20C19.8965 20 19.8819 19.9995 19.8674 19.9986C18.6164 19.9163 17.4593 19.3032 16.7078 18.3147C16.485 18.0216 16.5419 17.6034 16.835 17.3806C17.1281 17.1577 17.5464 17.2147 17.7692 17.5078C18.278 18.177 19.0675 18.6035 19.9329 18.6666Z" fill="#0783BE"/>
</svg>
