<svg width="32" height="32" viewBox="0 0 32 32" fill="none" xmlns="http://www.w3.org/2000/svg">
    <rect x="0.5" y="0.5" width="31" height="31" rx="15.5" fill="#EBF5FA"/>
    <rect x="0.5" y="0.5" width="31" height="31" rx="15.5" stroke="#A5D2E7"/>
    <g clip-path="url(#clip0_2782_67139)">
        <path fill-rule="evenodd" clip-rule="evenodd" d="M14.9366 10.0183C14.8777 10.0042 14.8074 9.9999 14.4496 9.9999H11.4666C11.0822 9.99991 10.834 10.0004 10.6451 10.0159C10.464 10.0307 10.3969 10.0558 10.3639 10.0726C10.2385 10.1365 10.1365 10.2385 10.0726 10.3639C10.0558 10.3969 10.0307 10.464 10.0159 10.6451C10.0004 10.834 9.99991 11.0822 9.99991 11.4666L9.9999 14.4496C9.9999 14.8074 10.0042 14.8777 10.0183 14.9366C10.0347 15.0046 10.0616 15.0696 10.0981 15.1293C10.1298 15.1809 10.1764 15.2336 10.4295 15.4867L15.5419 20.5991C15.9457 21.0029 16.2206 21.277 16.4501 21.4719C16.6736 21.6616 16.8099 21.7367 16.9212 21.7729C17.189 21.8599 17.4775 21.8599 17.7453 21.7729C17.8566 21.7367 17.9929 21.6616 18.2164 21.4719C18.4459 21.277 18.7208 21.0029 19.1246 20.5991L20.5991 19.1246C21.0029 18.7208 21.277 18.4459 21.4719 18.2164C21.6616 17.9929 21.7367 17.8566 21.7729 17.7453C21.8599 17.4775 21.8599 17.189 21.7729 16.9212C21.7367 16.8099 21.6616 16.6736 21.4719 16.4501C21.277 16.2206 21.0029 15.9457 20.5991 15.5419L15.4867 10.4295C15.2336 10.1764 15.1809 10.1298 15.1293 10.0981C15.0696 10.0616 15.0046 10.0347 14.9366 10.0183ZM14.5051 8.66654C14.7764 8.66629 15.0155 8.66606 15.2478 8.72183C15.4519 8.77083 15.647 8.85163 15.8259 8.96129C16.0296 9.08611 16.1986 9.25539 16.3902 9.44738C16.4032 9.46037 16.4163 9.47347 16.4295 9.48667L21.5614 14.6186C21.9408 14.998 22.254 15.3112 22.4883 15.5872C22.7316 15.8738 22.9287 16.1638 23.041 16.5092C23.215 17.0448 23.215 17.6217 23.041 18.1573C22.9287 18.5026 22.7316 18.7927 22.4883 19.0793C22.254 19.3553 21.9408 19.6685 21.5614 20.0479L20.0479 21.5614C19.6685 21.9408 19.3553 22.254 19.0793 22.4883C18.7927 22.7316 18.5026 22.9287 18.1573 23.041C17.6217 23.215 17.0448 23.215 16.5092 23.041C16.1638 22.9287 15.8738 22.7316 15.5872 22.4883C15.3112 22.254 14.998 21.9408 14.6185 21.5613L9.48667 16.4295C9.47348 16.4163 9.46038 16.4032 9.44738 16.3902C9.25539 16.1986 9.08612 16.0296 8.96129 15.8259C8.85163 15.647 8.77083 15.4519 8.72183 15.2478C8.66606 15.0155 8.66629 14.7764 8.66654 14.5051C8.66655 14.4868 8.66657 14.4682 8.66657 14.4496L8.66657 11.4409C8.66656 11.0894 8.66655 10.7863 8.68695 10.5366C8.70849 10.273 8.75603 10.0108 8.88456 9.75859C9.07631 9.38227 9.38227 9.07631 9.75859 8.88456C10.0108 8.75603 10.273 8.70849 10.5366 8.68695C10.7863 8.66655 11.0894 8.66656 11.4409 8.66657L14.4496 8.66657C14.4682 8.66657 14.4868 8.66655 14.5051 8.66654ZM12.3332 13.3332C12.3332 12.781 12.781 12.3332 13.3332 12.3332C13.8855 12.3332 14.3332 12.781 14.3332 13.3332C14.3332 13.8855 13.8855 14.3332 13.3332 14.3332C12.781 14.3332 12.3332 13.8855 12.3332 13.3332Z" fill="#0783BE"/>
    </g>
    <defs>
        <clipPath id="clip0_2782_67139">
            <rect width="16" height="16" fill="white" transform="translate(8 8)"/>
        </clipPath>
    </defs>
</svg>
