<svg width="32" height="32" viewBox="0 0 32 32" fill="none" xmlns="http://www.w3.org/2000/svg">
    <rect x="0.5" y="0.5" width="31" height="31" rx="15.5" fill="#EBF5FA"/>
    <rect x="0.5" y="0.5" width="31" height="31" rx="15.5" stroke="#A5D2E7"/>
    <g clip-path="url(#clip0_2782_67134)">
        <path fill-rule="evenodd" clip-rule="evenodd" d="M22.9813 8.74563C23.1981 8.86165 23.3334 9.08755 23.3334 9.33342V20.0001C23.3334 20.223 23.222 20.4311 23.0365 20.5548L19.0365 23.2214C18.8264 23.3615 18.5552 23.3709 18.336 23.2456L14.0001 20.7679L9.66417 23.2456C9.45784 23.3635 9.20434 23.3626 8.9988 23.2434C8.79325 23.1241 8.66675 22.9044 8.66675 22.6667V12.0001C8.66675 11.7608 8.79494 11.5399 9.00266 11.4213L13.6693 8.75459C13.8743 8.63747 14.1259 8.63747 14.3308 8.75459L18.6398 11.2168L22.2969 8.77872C22.5015 8.64234 22.7645 8.62962 22.9813 8.74563ZM18.0001 12.387L14.6667 10.4822V19.6132L18.0001 21.518V12.387ZM19.3334 21.4211L22.0001 19.6433V10.5791L19.3334 12.3569V21.4211ZM13.3334 19.6132V10.4822L10.0001 12.387V21.518L13.3334 19.6132Z" fill="#0783BE"/>
    </g>
    <defs>
        <clipPath id="clip0_2782_67134">
            <rect width="16" height="16" fill="white" transform="translate(8 8)"/>
        </clipPath>
    </defs>
</svg>
