<svg width="32" height="32" viewBox="0 0 32 32" fill="none" xmlns="http://www.w3.org/2000/svg">
    <rect x="0.5" y="0.5" width="31" height="31" rx="15.5" fill="#EBF5FA"/>
    <rect x="0.5" y="0.5" width="31" height="31" rx="15.5" stroke="#A5D2E7"/>
    <path d="M17.3334 14.6666H13.3334C12.96 14.6666 12.6667 14.9599 12.6667 15.3332C12.6667 15.6999 12.96 15.9999 13.3334 15.9999H17.3334C17.7 15.9999 18 15.6999 18 15.3332C18 14.9599 17.7 14.6666 17.3334 14.6666ZM14.6667 17.3332H13.3334C12.96 17.3332 12.6667 17.6266 12.6667 17.9999C12.6667 18.3666 12.96 18.6666 13.3334 18.6666H14.6667C15.0334 18.6666 15.3334 18.3666 15.3334 17.9999C15.3334 17.6266 15.0334 17.3332 14.6667 17.3332ZM18.6667 11.9999H13.3334C12.96 11.9999 12.6667 12.2932 12.6667 12.6666C12.6667 13.0332 12.96 13.3332 13.3334 13.3332H18.6667C19.0334 13.3332 19.3334 13.0332 19.3334 12.6666C19.3334 12.2932 19.0334 11.9999 18.6667 11.9999ZM22 14.9999V12.5332C22 10.9932 21.9667 10.6332 21.7067 10.1199C21.4467 9.61325 21.04 9.20658 20.54 8.95325C20.0267 8.68658 19.66 8.65991 18.1267 8.65991H13.86C12.32 8.65991 11.96 8.68658 11.4467 8.94658C10.94 9.19991 10.5334 9.60658 10.28 10.1066C10.0134 10.6132 9.98669 10.9799 9.98669 12.5132V19.4466C9.98669 20.9799 10.0134 21.3399 10.2734 21.8532C10.5267 22.3532 10.9334 22.7599 11.4334 23.0132C11.94 23.2732 12.3067 23.2999 13.84 23.2999H15.64C16.0067 23.2999 16.3067 22.9999 16.3067 22.6332C16.3067 22.2599 16.0067 21.9666 15.64 21.9666H13.84C12.5734 21.9666 12.2667 21.9399 12.0334 21.8199C11.78 21.6866 11.5734 21.4866 11.4467 21.2332C11.32 20.9932 11.3 20.6932 11.3 19.4266V12.4932C11.3 11.2266 11.32 10.9199 11.44 10.6866C11.5667 10.4332 11.7667 10.2266 12.02 10.0999C12.2534 9.97325 12.5534 9.95325 13.82 9.95325H18.0867C19.3467 9.95325 19.6534 9.97325 19.8867 10.0932C20.1334 10.2199 20.34 10.4199 20.4667 10.6732C20.5867 10.9066 20.6067 11.2066 20.6067 12.4732V14.9399C20.6067 15.3066 20.9 15.6066 21.2734 15.6066C21.64 15.6066 21.94 15.3066 21.94 14.9399L22 14.9999ZM23.1334 22.1932L22.1334 21.1932C21.8667 20.9266 21.4467 20.9266 21.1867 21.1932C20.92 21.4532 20.92 21.8732 21.1867 22.1332L22.1867 23.1332C22.4467 23.3932 22.8667 23.3932 23.1267 23.1332C23.3867 22.8666 23.3867 22.4466 23.1267 22.1866L23.1334 22.1932ZM21.66 19.9932C21.66 20.9132 20.9134 21.6599 19.9934 21.6599C19.0667 21.6599 18.3267 20.9132 18.3267 19.9932C18.3267 19.0666 19.0667 18.3266 19.9934 18.3266C20.9134 18.3266 21.66 19.0666 21.66 19.9932ZM22.9934 19.9932C22.9934 18.3332 21.6467 16.9932 19.9934 16.9932C18.3334 16.9932 16.9934 18.3332 16.9934 19.9932C16.9934 21.6466 18.3334 22.9932 19.9934 22.9932C21.6467 22.9932 22.9934 21.6466 22.9934 19.9932Z" fill="#0783BE"/>
</svg>
