<svg width="104" height="104" viewBox="0 0 104 104" fill="none" xmlns="http://www.w3.org/2000/svg">
    <g filter="url(#filter0_dd_2782_66957)">
        <path d="M88 44C88 63.8823 71.8823 80 52 80C32.1177 80 16 63.8823 16 44C16 24.1177 32.1177 8 52 8C71.8823 8 88 24.1177 88 44Z" fill="url(#paint0_radial_2782_66957)"/>
        <path fill-rule="evenodd" clip-rule="evenodd" d="M32.875 26.0004L71.125 26C73.6103 26 75.625 28.0147 75.625 30.5V57.4996C75.625 59.9848 73.6103 61.9996 71.125 61.9996L32.875 61.9999C30.3897 62 28.375 59.9852 28.375 57.4999V30.5004C28.375 28.0151 30.3897 26.0004 32.875 26.0004ZM71.125 28.25L32.875 28.2504C31.6323 28.2504 30.625 29.2577 30.625 30.5004V57.4999C30.625 58.7426 31.6324 59.7499 32.875 59.7499L71.125 59.7496C72.3677 59.7496 73.375 58.7422 73.375 57.4996V30.5C73.375 29.2574 72.3676 28.25 71.125 28.25Z" fill="white"/>
        <path fill-rule="evenodd" clip-rule="evenodd" d="M62.4019 32.9198C62.4077 32.9937 62.4136 33.0678 62.4281 33.1405L62.7279 34.6395C62.817 35.0849 63.1651 35.433 63.6104 35.5221L65.1095 35.8219C65.1822 35.8364 65.2563 35.8423 65.3301 35.8481C66.0547 35.9048 66.625 36.5108 66.625 37.25C66.625 37.9891 66.0547 38.5951 65.3301 38.6519C65.2563 38.6577 65.1822 38.6635 65.1095 38.6781L63.6104 38.9779C63.1651 39.0669 62.817 39.4151 62.7279 39.8604L62.4281 41.3595C62.4136 41.4321 62.4077 41.5062 62.4019 41.5801C62.3451 42.3047 61.7392 42.875 61 42.875C60.2608 42.875 59.6549 42.3047 59.5981 41.5801C59.5923 41.5062 59.5864 41.4321 59.5719 41.3595L59.2721 39.8604C59.183 39.4151 58.8349 39.0669 58.3896 38.9779L56.8905 38.6781C56.8178 38.6635 56.7437 38.6577 56.6699 38.6519C55.9453 38.5951 55.375 37.9891 55.375 37.25C55.375 36.5108 55.9453 35.9048 56.6699 35.8481C56.7437 35.8423 56.8178 35.8364 56.8905 35.8219L58.3896 35.5221C58.8349 35.433 59.183 35.0849 59.2721 34.6395L59.5719 33.1405C59.5864 33.0678 59.5923 32.9937 59.5981 32.9198C59.6549 32.1953 60.2608 31.625 61 31.625C61.7392 31.625 62.3451 32.1953 62.4019 32.9198ZM38.5 39.5C37.8787 39.5 37.375 40.0036 37.375 40.625C37.375 41.2463 37.8787 41.75 38.5 41.75H50.875C51.4963 41.75 52 41.2463 52 40.625C52 40.0036 51.4963 39.5 50.875 39.5H38.5ZM38.5 45.6875C37.8787 45.6875 37.375 46.1911 37.375 46.8125C37.375 47.4338 37.8787 47.9375 38.5 47.9375H59.3125C59.9338 47.9375 60.4375 47.4338 60.4375 46.8125C60.4375 46.1911 59.9338 45.6875 59.3125 45.6875H38.5ZM38.5 51.875C37.8787 51.875 37.375 52.3786 37.375 53C37.375 53.6213 37.8787 54.125 38.5 54.125H65.5C66.1213 54.125 66.625 53.6213 66.625 53C66.625 52.3786 66.1213 51.875 65.5 51.875H38.5Z" fill="white"/>
    </g>
    <defs>
        <filter id="filter0_dd_2782_66957" x="0" y="0" width="104" height="104" filterUnits="userSpaceOnUse" color-interpolation-filters="sRGB">
            <feFlood flood-opacity="0" result="BackgroundImageFix"/>
            <feColorMatrix in="SourceAlpha" type="matrix" values="0 0 0 0 0 0 0 0 0 0 0 0 0 0 0 0 0 0 127 0" result="hardAlpha"/>
            <feOffset dy="8"/>
            <feGaussianBlur stdDeviation="8"/>
            <feColorMatrix type="matrix" values="0 0 0 0 0 0 0 0 0 0 0 0 0 0 0 0 0 0 0.08 0"/>
            <feBlend mode="normal" in2="BackgroundImageFix" result="effect1_dropShadow_2782_66957"/>
            <feColorMatrix in="SourceAlpha" type="matrix" values="0 0 0 0 0 0 0 0 0 0 0 0 0 0 0 0 0 0 127 0" result="hardAlpha"/>
            <feOffset/>
            <feGaussianBlur stdDeviation="2"/>
            <feColorMatrix type="matrix" values="0 0 0 0 0 0 0 0 0 0 0 0 0 0 0 0 0 0 0.04 0"/>
            <feBlend mode="normal" in2="effect1_dropShadow_2782_66957" result="effect2_dropShadow_2782_66957"/>
            <feBlend mode="normal" in="SourceGraphic" in2="effect2_dropShadow_2782_66957" result="shape"/>
        </filter>
        <radialGradient id="paint0_radial_2782_66957" cx="0" cy="0" r="1" gradientUnits="userSpaceOnUse" gradientTransform="translate(16 8) rotate(45) scale(101.823)">
            <stop stop-color="#0ECAD4"/>
            <stop offset="1" stop-color="#006BD6"/>
        </radialGradient>
    </defs>
</svg>
