<svg width="20" height="20" viewBox="0 0 20 20" fill="none" xmlns="http://www.w3.org/2000/svg">
<path fill-rule="evenodd" clip-rule="evenodd" d="M10 1.25C10.3176 1.25 10.6077 1.43013 10.7483 1.71465L13.1289 6.53355L18.4523 7.3063C18.7666 7.35192 19.0277 7.57184 19.1258 7.8736C19.224 8.17535 19.1421 8.5066 18.9147 8.72807L15.0627 12.4791L15.972 17.7755C16.0257 18.0883 15.897 18.4043 15.6401 18.5908C15.3831 18.7773 15.0425 18.8019 14.7614 18.6542L10 16.1536L5.2387 18.6542C4.95758 18.8019 4.61693 18.7773 4.35998 18.5908C4.10304 18.4043 3.97436 18.0883 4.02804 17.7755L4.93738 12.4791L1.08537 8.72807C0.857942 8.5066 0.776091 8.17535 0.874236 7.8736C0.972381 7.57184 1.2335 7.35192 1.5478 7.3063L6.87114 6.53355L9.25182 1.71465C9.39237 1.43013 9.68244 1.25 10 1.25ZM10 3.96698L8.17346 7.66431C8.05192 7.91033 7.81698 8.08085 7.54521 8.1203L3.46085 8.71319L6.41632 11.5912C6.61298 11.7827 6.70271 12.0586 6.65629 12.329L5.9586 16.3927L9.61177 14.4741C9.85484 14.3464 10.1452 14.3464 10.3883 14.4741L14.0415 16.3927L13.3438 12.329C13.2974 12.0586 13.3871 11.7827 13.5838 11.5912L16.5392 8.71319L12.4549 8.1203C12.1831 8.08085 11.9482 7.91033 11.8266 7.66431L10 3.96698Z" fill="#73858C"/>
</svg>
