<svg width="32" height="32" viewBox="0 0 32 32" fill="none" xmlns="http://www.w3.org/2000/svg">
    <rect x="0.5" y="0.5" width="31" height="31" rx="15.5" fill="#EBF5FA"/>
    <rect x="0.5" y="0.5" width="31" height="31" rx="15.5" stroke="#A5D2E7"/>
    <path fill-rule="evenodd" clip-rule="evenodd" d="M15.7778 11.1112C13.2004 11.1112 11.1111 13.2005 11.1111 15.7778C11.1111 18.3552 13.2004 20.4445 15.7778 20.4445C17.0351 20.4445 18.1762 19.9473 19.0154 19.1388C19.0329 19.1159 19.0521 19.094 19.073 19.0731C19.0939 19.0522 19.1159 19.033 19.1387 19.0154C19.9472 18.1763 20.4444 17.0351 20.4444 15.7778C20.4444 13.2005 18.3551 11.1112 15.7778 11.1112ZM20.4657 19.523C21.2868 18.4965 21.7778 17.1945 21.7778 15.7778C21.7778 12.4641 19.0915 9.77783 15.7778 9.77783C12.4641 9.77783 9.77777 12.4641 9.77777 15.7778C9.77777 19.0915 12.4641 21.7778 15.7778 21.7778C17.1944 21.7778 18.4964 21.2868 19.5229 20.4658L21.973 22.9159C22.2334 23.1763 22.6555 23.1763 22.9158 22.9159C23.1762 22.6556 23.1762 22.2334 22.9158 21.9731L20.4657 19.523Z" fill="#0783BE"/>
</svg>
