<svg width="16" height="18" viewBox="0 0 16 18" fill="none" xmlns="http://www.w3.org/2000/svg">
<path d="M14.0001 13.9091C14.0001 12.7794 13.1046 11.8636 12 11.8636C10.8955 11.8636 10 12.7794 10 13.9091C10 15.0388 10.8955 15.9545 12 15.9545C13.1046 15.9545 14.0001 15.0388 14.0001 13.9091ZM5.60002 10.6364C6.04185 10.6364 6.40003 11.0027 6.40003 11.4545C6.40003 11.9064 6.04185 12.2727 5.60002 12.2727H4.00002C3.55819 12.2727 3.20001 11.9064 3.20001 11.4545C3.20001 11.0027 3.55819 10.6364 4.00002 10.6364H5.60002ZM8.80003 7.36364C9.24186 7.36364 9.60004 7.72995 9.60004 8.18182C9.60004 8.63369 9.24186 9 8.80003 9H4.00002C3.55819 9 3.20001 8.63369 3.20001 8.18182C3.20001 7.72995 3.55819 7.36364 4.00002 7.36364H8.80003ZM12.8 7.77273V4.7453C12.8 4.04461 12.7998 3.56823 12.7704 3.20002C12.7417 2.84132 12.6896 2.65762 12.6258 2.52965C12.4724 2.22181 12.2276 1.97142 11.9266 1.81454C11.8015 1.74934 11.6219 1.69603 11.2711 1.66673C10.9111 1.63665 10.4453 1.63637 9.76019 1.63636H4.63986C3.95475 1.63637 3.48895 1.63665 3.12892 1.66673C2.77819 1.69603 2.59857 1.74934 2.47345 1.81454C2.17244 1.97142 1.92761 2.22181 1.77423 2.52965C1.71047 2.65762 1.65835 2.84132 1.6297 3.20002C1.60029 3.56823 1.60001 4.04461 1.60001 4.7453V13.2547C1.60001 13.9554 1.60029 14.4318 1.6297 14.8C1.65835 15.1587 1.71047 15.3424 1.77423 15.4703C1.92761 15.7782 2.17244 16.0286 2.47345 16.1855C2.59857 16.2507 2.77819 16.304 3.12892 16.3333C3.48895 16.3633 3.95475 16.3636 4.63986 16.3636H6.80003C7.24186 16.3636 7.60003 16.7299 7.60003 17.1818C7.60003 17.6337 7.24186 18 6.80003 18H4.63986C3.98107 18 3.43876 18.0008 2.99845 17.964C2.5488 17.9265 2.13513 17.846 1.74688 17.6436C1.14488 17.3299 0.655217 16.8291 0.34844 16.2134C0.150619 15.8164 0.0719012 15.3933 0.0351579 14.9334C-0.000816432 14.4831 1.46122e-06 13.9285 1.55944e-06 13.2547V4.7453C1.46122e-06 4.07153 -0.000816429 3.5169 0.0351579 3.06658C0.0719012 2.60672 0.150619 2.18365 0.34844 1.78658C0.655217 1.17089 1.14488 0.670105 1.74688 0.356358C2.13513 0.154042 2.5488 0.073535 2.99845 0.0359568C3.43876 -0.000834981 3.98107 1.49441e-06 4.63986 1.59486e-06H9.76019C10.419 1.49441e-06 10.9613 -0.000834981 11.4016 0.0359568C11.8513 0.073535 12.2649 0.154042 12.6532 0.356358C13.2552 0.670105 13.7448 1.17089 14.0516 1.78658C14.2494 2.18365 14.3282 2.60672 14.3649 3.06658C14.4009 3.5169 14.4001 4.07153 14.4001 4.7453V7.77273C14.4001 8.2246 14.0419 8.59091 13.6001 8.59091C13.1582 8.59091 12.8 8.2246 12.8 7.77273ZM10.4 4.09091C10.8419 4.09091 11.2 4.45722 11.2 4.90909C11.2 5.36096 10.8419 5.72727 10.4 5.72727H4.00002C3.55819 5.72727 3.20001 5.36096 3.20001 4.90909C3.20001 4.45722 3.55819 4.09091 4.00002 4.09091H10.4ZM15.6001 13.9091C15.6001 14.6294 15.3966 15.3007 15.0469 15.8683L15.7657 16.6033C16.0781 16.9229 16.0781 17.4408 15.7657 17.7603C15.4533 18.0798 14.9469 18.0798 14.6344 17.7603L13.9157 17.0252C13.3607 17.3828 12.7044 17.5909 12 17.5909C10.0118 17.5909 8.40003 15.9425 8.40003 13.9091C8.40003 11.8757 10.0118 10.2273 12 10.2273C13.9883 10.2273 15.6001 11.8757 15.6001 13.9091Z" fill="#73858C"/>
</svg>
