<svg width="104" height="104" viewBox="0 0 104 104" fill="none" xmlns="http://www.w3.org/2000/svg">
    <g filter="url(#filter0_dd_2782_66651)">
        <path d="M88 44C88 63.8823 71.8823 80 52 80C32.1177 80 16 63.8823 16 44C16 24.1177 32.1177 8 52 8C71.8823 8 88 24.1177 88 44Z" fill="url(#paint0_radial_2782_66651)"/>
        <path fill-rule="evenodd" clip-rule="evenodd" d="M57.5044 55.1293C57.9438 54.6899 58.6561 54.6899 59.0954 55.1293L66.2954 62.3293C66.7347 62.7686 66.7347 63.4809 66.2954 63.9202C65.856 64.3596 65.1437 64.3596 64.7044 63.9202L57.5044 56.7203C57.0651 56.2809 57.0651 55.5686 57.5044 55.1293Z" fill="white"/>
        <path fill-rule="evenodd" clip-rule="evenodd" d="M45.4429 56.7607C53.0052 56.7607 59.1357 50.6302 59.1357 43.0679C59.1357 35.5055 53.0052 29.375 45.4429 29.375C37.8805 29.375 31.75 35.5055 31.75 43.0679C31.75 50.6302 37.8805 56.7607 45.4429 56.7607ZM45.4429 59.0107C54.2479 59.0107 61.3857 51.8729 61.3857 43.0679C61.3857 34.2629 54.2479 27.125 45.4429 27.125C36.6379 27.125 29.5 34.2629 29.5 43.0679C29.5 51.8729 36.6379 59.0107 45.4429 59.0107Z" fill="white"/>
        <path fill-rule="evenodd" clip-rule="evenodd" d="M49.5039 34.251C47.8312 33.4806 45.9739 33.2018 44.1488 33.4474C42.3236 33.6929 40.6059 34.4525 39.1963 35.6376C38.7207 36.0374 38.0111 35.976 37.6112 35.5004C37.2114 35.0248 37.2728 34.3152 37.7484 33.9154C39.4848 32.4556 41.6006 31.5199 43.8488 31.2174C46.097 30.915 48.3848 31.2583 50.4452 32.2074C52.5056 33.1564 54.2536 34.6719 55.485 36.577C56.7164 38.4822 57.3804 40.6983 57.3996 42.9667C57.4049 43.5879 56.9055 44.0959 56.2842 44.1011C55.6629 44.1064 55.155 43.607 55.1497 42.9857C55.1341 41.1442 54.595 39.3451 53.5953 37.7984C52.5956 36.2518 51.1766 35.0214 49.5039 34.251Z" fill="white"/>
        <path fill-rule="evenodd" clip-rule="evenodd" d="M36.971 36.2247C37.4921 36.5631 37.6402 37.2599 37.3018 37.781C37.0249 38.2074 36.7818 38.655 36.575 39.1196C36.3223 39.6872 35.6573 39.9425 35.0897 39.6898C34.5221 39.437 34.2668 38.772 34.5195 38.2044C34.7743 37.6322 35.0736 37.0809 35.4148 36.5555C35.7532 36.0344 36.45 35.8863 36.971 36.2247Z" fill="white"/>
        <path d="M70.0218 32.8592C70.0073 32.7866 70.0018 32.7125 69.9946 32.6388C69.9387 32.0697 69.4588 31.625 68.875 31.625C68.2912 31.625 67.8113 32.0697 67.7554 32.6388C67.7482 32.7125 67.7427 32.7866 67.7282 32.8592L67.5221 33.8896C67.433 34.3349 67.0849 34.683 66.6396 34.7721L65.6092 34.9782C65.5366 34.9927 65.4625 34.9982 65.3888 35.0054C64.8197 35.0613 64.375 35.5412 64.375 36.125C64.375 36.7088 64.8197 37.1887 65.3888 37.2446C65.4625 37.2518 65.5366 37.2573 65.6092 37.2718L66.6396 37.4779C67.0849 37.567 67.433 37.9151 67.5221 38.3604L67.7282 39.3908C67.7427 39.4634 67.7482 39.5375 67.7554 39.6112C67.8113 40.1803 68.2912 40.625 68.875 40.625C69.4588 40.625 69.9387 40.1803 69.9946 39.6112C70.0018 39.5375 70.0073 39.4634 70.0218 39.3908L70.2279 38.3604C70.317 37.9151 70.6651 37.567 71.1104 37.4779L72.1408 37.2718C72.2134 37.2573 72.2875 37.2518 72.3612 37.2446C72.9303 37.1887 73.375 36.7088 73.375 36.125C73.375 35.5412 72.9303 35.0613 72.3612 35.0054C72.2875 34.9982 72.2134 34.9927 72.1408 34.9782L71.1104 34.7721C70.6651 34.683 70.317 34.3349 70.2279 33.8896L70.0218 32.8592Z" fill="white"/>
        <path d="M63.5531 23.0155C63.5386 22.9428 63.5327 22.8687 63.5269 22.7949C63.4701 22.0703 62.8642 21.5 62.125 21.5C61.3858 21.5 60.7799 22.0703 60.7231 22.7949C60.7173 22.8687 60.7114 22.9428 60.6969 23.0155L60.3971 24.5146C60.308 24.9599 59.9599 25.308 59.5146 25.3971L58.0155 25.6969C57.9428 25.7114 57.8687 25.7173 57.7949 25.7231C57.0703 25.7799 56.5 26.3858 56.5 27.125C56.5 27.8642 57.0703 28.4701 57.7949 28.5269C57.8687 28.5327 57.9428 28.5386 58.0155 28.5531L59.5146 28.8529C59.9599 28.942 60.308 29.2901 60.3971 29.7354L60.6969 31.2345C60.7114 31.3072 60.7173 31.3813 60.7231 31.4551C60.7799 32.1797 61.3858 32.75 62.125 32.75C62.8642 32.75 63.4701 32.1797 63.5269 31.4551C63.5327 31.3813 63.5386 31.3072 63.5531 31.2345L63.8529 29.7354C63.942 29.2901 64.2901 28.942 64.7354 28.8529L66.2345 28.5531C66.3072 28.5386 66.3813 28.5327 66.4551 28.5269C67.1797 28.4701 67.75 27.8642 67.75 27.125C67.75 26.3858 67.1797 25.7799 66.4551 25.7231C66.3813 25.7173 66.3072 25.7114 66.2345 25.6969L64.7354 25.3971C64.2901 25.308 63.942 24.9599 63.8529 24.5146L63.5531 23.0155Z" fill="white"/>
    </g>
    <defs>
        <filter id="filter0_dd_2782_66651" x="0" y="0" width="104" height="104" filterUnits="userSpaceOnUse" color-interpolation-filters="sRGB">
            <feFlood flood-opacity="0" result="BackgroundImageFix"/>
            <feColorMatrix in="SourceAlpha" type="matrix" values="0 0 0 0 0 0 0 0 0 0 0 0 0 0 0 0 0 0 127 0" result="hardAlpha"/>
            <feOffset dy="8"/>
            <feGaussianBlur stdDeviation="8"/>
            <feColorMatrix type="matrix" values="0 0 0 0 0 0 0 0 0 0 0 0 0 0 0 0 0 0 0.08 0"/>
            <feBlend mode="normal" in2="BackgroundImageFix" result="effect1_dropShadow_2782_66651"/>
            <feColorMatrix in="SourceAlpha" type="matrix" values="0 0 0 0 0 0 0 0 0 0 0 0 0 0 0 0 0 0 127 0" result="hardAlpha"/>
            <feOffset/>
            <feGaussianBlur stdDeviation="2"/>
            <feColorMatrix type="matrix" values="0 0 0 0 0 0 0 0 0 0 0 0 0 0 0 0 0 0 0.04 0"/>
            <feBlend mode="normal" in2="effect1_dropShadow_2782_66651" result="effect2_dropShadow_2782_66651"/>
            <feBlend mode="normal" in="SourceGraphic" in2="effect2_dropShadow_2782_66651" result="shape"/>
        </filter>
        <radialGradient id="paint0_radial_2782_66651" cx="0" cy="0" r="1" gradientUnits="userSpaceOnUse" gradientTransform="translate(16 8) rotate(45) scale(101.823)">
            <stop stop-color="#0ECAD4"/>
            <stop offset="1" stop-color="#006BD6"/>
        </radialGradient>
    </defs>
</svg>
