<svg width="40" height="40" viewBox="0 0 56 56" fill="none" xmlns="http://www.w3.org/2000/svg">
<path d="M16.9 9.10017L9.1 16.9014C8.39375 17.6078 8 18.5579 8 19.5518V46.1247C8 47.1624 8.8375 48 9.875 48H46.125C47.1625 48 48 47.1624 48 46.1247V9.87529C48 8.83763 47.1625 8 46.125 8H19.5562C18.5625 8 17.6062 8.39381 16.9062 9.10017H16.9Z" fill="url(#paint0_radial_3020_25830)"/>
<path d="M19.5566 8.5H46.125C46.8862 8.5 47.4998 9.11354 47.5 9.875V46.125C47.4998 46.8865 46.8862 47.5 46.125 47.5H9.875C9.11381 47.5 8.50016 46.8865 8.5 46.125V19.5518L8.50391 19.3906C8.54364 18.5888 8.87881 17.8294 9.45312 17.2549L17.1074 9.60059H17.1143L17.2617 9.45215C17.829 8.87981 18.592 8.54357 19.3955 8.50391L19.5566 8.5Z" stroke="white" stroke-opacity="0.25"/>
<path fill-rule="evenodd" clip-rule="evenodd" d="M31.4569 34.9823C31.7073 34.732 32.1131 34.732 32.3635 34.9823L36.466 39.0848C36.7164 39.3352 36.7164 39.7411 36.466 39.9914C36.2157 40.2417 35.8098 40.2417 35.5595 39.9914L31.4569 35.8888C31.2066 35.6385 31.2066 35.2326 31.4569 34.9823Z" fill="white"/>
<path fill-rule="evenodd" clip-rule="evenodd" d="M24.5843 35.9119C28.8933 35.9119 32.3865 32.4187 32.3865 28.1097C32.3865 23.8007 28.8933 20.3075 24.5843 20.3075C20.2752 20.3075 16.7821 23.8007 16.7821 28.1097C16.7821 32.4187 20.2752 35.9119 24.5843 35.9119ZM24.5843 37.1939C29.6013 37.1939 33.6685 33.1268 33.6685 28.1097C33.6685 23.0926 29.6013 19.0254 24.5843 19.0254C19.5672 19.0254 15.5 23.0926 15.5 28.1097C15.5 33.1268 19.5672 37.1939 24.5843 37.1939Z" fill="white"/>
<path fill-rule="evenodd" clip-rule="evenodd" d="M26.8983 23.0858C25.9452 22.6468 24.8868 22.488 23.8469 22.6279C22.8069 22.7678 21.8282 23.2007 21.025 23.8759C20.754 24.1037 20.3496 24.0687 20.1218 23.7978C19.894 23.5268 19.929 23.1224 20.2 22.8946C21.1893 22.0628 22.3949 21.5296 23.6759 21.3573C24.957 21.185 26.2606 21.3806 27.4346 21.9214C28.6086 22.4621 29.6046 23.3257 30.3063 24.4112C31.0079 25.4968 31.3863 26.7595 31.3972 28.052C31.4002 28.406 31.1157 28.6955 30.7617 28.6985C30.4076 28.7014 30.1182 28.4169 30.1152 28.0629C30.1063 27.0136 29.7992 25.9884 29.2295 25.1072C28.6599 24.2259 27.8514 23.5248 26.8983 23.0858Z" fill="white"/>
<path fill-rule="evenodd" clip-rule="evenodd" d="M19.757 24.2105C20.0539 24.4033 20.1383 24.8003 19.9455 25.0972C19.7877 25.3402 19.6492 25.5953 19.5313 25.86C19.3873 26.1834 19.0084 26.3288 18.685 26.1848C18.3616 26.0408 18.2161 25.6619 18.3601 25.3385C18.5053 25.0124 18.6759 24.6983 18.8703 24.399C19.0631 24.102 19.4601 24.0177 19.757 24.2105Z" fill="white"/>
<path d="M38.5894 22.2928C38.5811 22.2514 38.578 22.2092 38.5738 22.1672C38.542 21.8429 38.2685 21.5895 37.9359 21.5895C37.6033 21.5895 37.3298 21.8429 37.298 22.1672C37.2938 22.2092 37.2907 22.2514 37.2824 22.2928L37.165 22.8799C37.1143 23.1336 36.9159 23.332 36.6621 23.3828L36.0751 23.5002C36.0337 23.5084 35.9914 23.5116 35.9494 23.5157C35.6252 23.5475 35.3718 23.821 35.3718 24.1536C35.3718 24.4863 35.6252 24.7597 35.9494 24.7916C35.9914 24.7957 36.0337 24.7988 36.0751 24.8071L36.6621 24.9245C36.9159 24.9753 37.1143 25.1736 37.165 25.4274L37.2824 26.0145C37.2907 26.0559 37.2938 26.0981 37.298 26.1401C37.3298 26.4644 37.6033 26.7177 37.9359 26.7177C38.2685 26.7177 38.542 26.4644 38.5738 26.1401C38.578 26.0981 38.5811 26.0559 38.5894 26.0145L38.7068 25.4274C38.7575 25.1736 38.9559 24.9753 39.2097 24.9245L39.7967 24.8071C39.8381 24.7988 39.8804 24.7957 39.9224 24.7916C40.2466 24.7597 40.5 24.4863 40.5 24.1536C40.5 23.821 40.2466 23.5475 39.9224 23.5157C39.8804 23.5116 39.8381 23.5085 39.7967 23.5002L39.2097 23.3828C38.9559 23.332 38.7575 23.1336 38.7068 22.8799L38.5894 22.2928Z" fill="white"/>
<path d="M34.9035 16.6838C34.8952 16.6424 34.8918 16.6002 34.8885 16.5581C34.8562 16.1453 34.5109 15.8203 34.0897 15.8203C33.6686 15.8203 33.3233 16.1453 33.2909 16.5581C33.2876 16.6002 33.2843 16.6424 33.276 16.6838L33.1052 17.538C33.0544 17.7918 32.8561 17.9901 32.6023 18.0409L31.7481 18.2117C31.7067 18.22 31.6645 18.2233 31.6224 18.2266C31.2096 18.259 30.8846 18.6043 30.8846 19.0254C30.8846 19.4466 31.2096 19.7919 31.6224 19.8242C31.6645 19.8275 31.7067 19.8309 31.7481 19.8392L32.6023 20.01C32.8561 20.0608 33.0544 20.2591 33.1052 20.5129L33.276 21.367C33.2843 21.4084 33.2876 21.4507 33.2909 21.4928C33.3233 21.9056 33.6686 22.2306 34.0897 22.2306C34.5109 22.2306 34.8562 21.9056 34.8885 21.4928C34.8918 21.4507 34.8952 21.4084 34.9035 21.367L35.0743 20.5129C35.1251 20.2591 35.3234 20.0608 35.5772 20.01L36.4313 19.8392C36.4727 19.8309 36.515 19.8275 36.5571 19.8242C36.9699 19.7919 37.2949 19.4466 37.2949 19.0254C37.2949 18.6043 36.9699 18.259 36.5571 18.2266C36.515 18.2233 36.4727 18.22 36.4313 18.2117L35.5772 18.0409C35.3234 17.9901 35.1251 17.7918 35.0743 17.538L34.9035 16.6838Z" fill="white"/>
<defs>
<radialGradient id="paint0_radial_3020_25830" cx="0" cy="0" r="1" gradientUnits="userSpaceOnUse" gradientTransform="translate(8 8) rotate(45) scale(56.5685)">
<stop stop-color="#0ECAD4"/>
<stop offset="1" stop-color="#006BD6"/>
</radialGradient>
</defs>
</svg>
