<svg width="20" height="20" viewBox="0 0 20 20" fill="none" xmlns="http://www.w3.org/2000/svg">
<path fill-rule="evenodd" clip-rule="evenodd" d="M9.16663 3.33317C5.94496 3.33317 3.33329 5.94484 3.33329 9.1665C3.33329 12.3882 5.94496 14.9998 9.16663 14.9998C10.7382 14.9998 12.1647 14.3783 13.2136 13.3677C13.2355 13.3391 13.2596 13.3117 13.2857 13.2856C13.3118 13.2595 13.3393 13.2354 13.3678 13.2135C14.3784 12.1646 15 10.7381 15 9.1665C15 5.94484 12.3883 3.33317 9.16663 3.33317ZM15.0265 13.8479C16.0529 12.5649 16.6666 10.9373 16.6666 9.1665C16.6666 5.02437 13.3088 1.6665 9.16663 1.6665C5.02449 1.6665 1.66663 5.02437 1.66663 9.1665C1.66663 13.3086 5.02449 16.6665 9.16663 16.6665C10.9375 16.6665 12.565 16.0528 13.848 15.0264L16.9107 18.0891C17.2361 18.4145 17.7638 18.4145 18.0892 18.0891C18.4147 17.7637 18.4147 17.236 18.0892 16.9106L15.0265 13.8479Z" fill="#73858C"/>
</svg>
