<svg width="19" height="19" viewBox="0 0 19 19" fill="none" xmlns="http://www.w3.org/2000/svg">
<path d="M3.125 16.8887V15.7637H2C1.58579 15.7637 1.25 15.4279 1.25 15.0137C1.25 14.5995 1.58579 14.2637 2 14.2637H3.125V13.1387C3.125 12.7245 3.46079 12.3887 3.875 12.3887C4.28921 12.3887 4.625 12.7245 4.625 13.1387V14.2637H5.75C6.16421 14.2637 6.5 14.5995 6.5 15.0137C6.5 15.4279 6.16421 15.7637 5.75 15.7637H4.625V16.8887C4.625 17.3029 4.28921 17.6387 3.875 17.6387C3.46079 17.6387 3.125 17.3029 3.125 16.8887ZM10.25 1.88867C10.5603 1.88867 10.8387 2.07961 10.9502 2.36914L12.251 5.75073C12.4763 6.33652 12.5467 6.5059 12.6436 6.64209C12.7407 6.77864 12.86 6.898 12.9966 6.99512C13.1328 7.09196 13.3022 7.16239 13.8879 7.3877L17.2695 8.68848C17.5591 8.79993 17.75 9.07841 17.75 9.38867C17.75 9.69893 17.5591 9.97742 17.2695 10.0889L13.8879 11.3896C13.3022 11.615 13.1328 11.6854 12.9966 11.7822C12.86 11.8793 12.7407 11.9987 12.6436 12.1353C12.5467 12.2714 12.4763 12.4408 12.251 13.0266L10.9502 16.4082C10.8387 16.6977 10.5603 16.8887 10.25 16.8887C9.93974 16.8887 9.66126 16.6977 9.5498 16.4082L8.24902 13.0266C8.02372 12.4408 7.95329 12.2714 7.85645 12.1353C7.75932 11.9987 7.63997 11.8793 7.50342 11.7822C7.36722 11.6854 7.19784 11.615 6.61206 11.3896L3.23047 10.0889C2.94093 9.97742 2.75 9.69893 2.75 9.38867C2.75 9.07841 2.94093 8.79993 3.23047 8.68848L6.61206 7.3877C7.19785 7.16239 7.36722 7.09196 7.50342 6.99512C7.63997 6.898 7.75932 6.77864 7.85645 6.64209C7.95329 6.5059 8.02372 6.33652 8.24902 5.75073L9.5498 2.36914C9.66126 2.07961 9.93974 1.88867 10.25 1.88867ZM9.64941 6.28979C9.45179 6.80363 9.3108 7.18446 9.07886 7.51074C8.88452 7.78405 8.64538 8.02319 8.37207 8.21753C8.04579 8.44947 7.66496 8.59046 7.15112 8.78809L5.5896 9.38867L7.15112 9.98926C7.66496 10.1869 8.04579 10.3279 8.37207 10.5598C8.64538 10.7542 8.88452 10.9933 9.07886 11.2666C9.3108 11.5929 9.45179 11.9737 9.64941 12.4875L10.25 14.0483L10.8506 12.4875C11.0482 11.9737 11.1892 11.5929 11.4211 11.2666C11.6155 10.9933 11.8546 10.7542 12.1279 10.5598C12.4542 10.3279 12.835 10.1869 13.3489 9.98926L14.9097 9.38867L13.3489 8.78809C12.835 8.59046 12.4542 8.44947 12.1279 8.21753C11.8546 8.02319 11.6155 7.78405 11.4211 7.51074C11.1892 7.18446 11.0482 6.80363 10.8506 6.28979L10.25 4.72827L9.64941 6.28979ZM3.125 5.63867V4.51367H2C1.58579 4.51367 1.25 4.17789 1.25 3.76367C1.25 3.34946 1.58579 3.01367 2 3.01367H3.125V1.88867C3.125 1.47446 3.46079 1.13867 3.875 1.13867C4.28921 1.13867 4.625 1.47446 4.625 1.88867V3.01367H5.75C6.16421 3.01367 6.5 3.34946 6.5 3.76367C6.5 4.17789 6.16421 4.51367 5.75 4.51367H4.625V5.63867C4.625 6.05289 4.28921 6.38867 3.875 6.38867C3.46079 6.38867 3.125 6.05289 3.125 5.63867Z" fill="#2271B1"/>
</svg>
