<svg width="16" height="16" viewBox="0 0 16 16" fill="none" xmlns="http://www.w3.org/2000/svg">
<g clip-path="url(#clip0_2728_713)">
<path d="M2.33366 14.666V13.666H1.33366C0.965469 13.666 0.666992 13.3675 0.666992 12.9993C0.666992 12.6312 0.965469 12.3327 1.33366 12.3327H2.33366V11.3327C2.33366 10.9645 2.63214 10.666 3.00033 10.666C3.36852 10.666 3.66699 10.9645 3.66699 11.3327V12.3327H4.66699C5.03518 12.3327 5.33366 12.6312 5.33366 12.9993C5.33366 13.3675 5.03518 13.666 4.66699 13.666H3.66699V14.666C3.66699 15.0342 3.36852 15.3327 3.00033 15.3327C2.63214 15.3327 2.33366 15.0342 2.33366 14.666ZM8.66699 1.33268C8.94278 1.33268 9.19032 1.5024 9.28939 1.75977L10.4456 4.76562C10.6459 5.28632 10.7085 5.43688 10.7946 5.55794C10.8809 5.67932 10.987 5.78541 11.1084 5.87174C11.2295 5.95783 11.38 6.02043 11.9007 6.2207L14.9066 7.37695C15.1639 7.47602 15.3337 7.72356 15.3337 7.99935C15.3337 8.27513 15.1639 8.52268 14.9066 8.62174L11.9007 9.77799C11.38 9.97826 11.2295 10.0409 11.1084 10.127C10.987 10.2133 10.8809 10.3194 10.7946 10.4408C10.7085 10.5618 10.6459 10.7124 10.4456 11.2331L9.28939 14.2389C9.19032 14.4963 8.94278 14.666 8.66699 14.666C8.39121 14.666 8.14366 14.4963 8.0446 14.2389L6.88835 11.2331C6.68808 10.7124 6.62547 10.5618 6.53939 10.4408C6.45306 10.3194 6.34697 10.2133 6.22559 10.127C6.10452 10.0409 5.95397 9.97826 5.43327 9.77799L2.42741 8.62174C2.17005 8.52268 2.00033 8.27513 2.00033 7.99935C2.00033 7.72356 2.17005 7.47602 2.42741 7.37695L5.43327 6.2207C5.95397 6.02043 6.10452 5.95783 6.22559 5.87174C6.34697 5.78542 6.45306 5.67932 6.53939 5.55794C6.62547 5.43688 6.68808 5.28632 6.88835 4.76562L8.0446 1.75977C8.14366 1.5024 8.39121 1.33268 8.66699 1.33268ZM8.13314 5.24479C7.95747 5.70154 7.83215 6.04005 7.62598 6.33008C7.45323 6.57302 7.24067 6.78559 6.99772 6.95833C6.70769 7.1645 6.36918 7.28982 5.91243 7.46549L4.52441 7.99935L5.91243 8.5332C6.36918 8.70887 6.70769 8.83419 6.99772 9.04036C7.24067 9.21311 7.45323 9.42568 7.62598 9.66862C7.83215 9.95865 7.95747 10.2972 8.13314 10.7539L8.66699 12.1413L9.20085 10.7539C9.37652 10.2972 9.50184 9.95865 9.70801 9.66862C9.88075 9.42568 10.0933 9.21311 10.3363 9.04036C10.6263 8.83419 10.9648 8.70887 11.4215 8.5332L12.8089 7.99935L11.4215 7.46549C10.9648 7.28982 10.6263 7.1645 10.3363 6.95833C10.0933 6.78559 9.88075 6.57302 9.70801 6.33008C9.50184 6.04005 9.37652 5.70154 9.20085 5.24479L8.66699 3.85677L8.13314 5.24479ZM2.33366 4.66602V3.66602H1.33366C0.965469 3.66602 0.666992 3.36754 0.666992 2.99935C0.666992 2.63116 0.965469 2.33268 1.33366 2.33268H2.33366V1.33268C2.33366 0.964492 2.63214 0.666016 3.00033 0.666016C3.36852 0.666016 3.66699 0.964492 3.66699 1.33268V2.33268H4.66699C5.03518 2.33268 5.33366 2.63116 5.33366 2.99935C5.33366 3.36754 5.03518 3.66602 4.66699 3.66602H3.66699V4.66602C3.66699 5.03421 3.36852 5.33268 3.00033 5.33268C2.63214 5.33268 2.33366 5.03421 2.33366 4.66602Z" fill="white"/>
</g>
<defs>
<clipPath id="clip0_2728_713">
<rect width="16" height="16" fill="white"/>
</clipPath>
</defs>
</svg>
