<svg xmlns="http://www.w3.org/2000/svg" width="17" height="17" viewBox="0 0 17 17" fill="none">
  <path d="M8.25 0C3.69 0 0 3.69 0 8.25C0 12.8025 3.69 16.5 8.25 16.5C12.8025 16.5 16.5 12.8025 16.5 8.25C16.5 3.69 12.8025 0 8.25 0ZM8.25 15C4.515 15 1.5 11.9775 1.5 8.25C1.5 4.515 4.515 1.5 8.25 1.5C11.9775 1.5 15 4.515 15 8.25C15 11.9775 11.9775 15 8.25 15ZM11.7825 5.2575L6.75 10.2825L4.7175 8.2575C4.4175 7.9575 3.9225 7.9575 3.6225 8.2575C3.3225 8.5575 3.3225 9.0525 3.6225 9.3525L6.2025 11.9325C6.5025 12.2325 6.9975 12.2325 7.2975 11.9325L12.8775 6.3525C13.1775 6.0525 13.1775 5.5575 12.8775 5.2575C12.5775 4.9575 12.075 4.9575 11.7825 5.2575Z" fill="#35872f"/>
</svg>
