<svg width="28" height="25" viewBox="0 0 28 25" fill="none" xmlns="http://www.w3.org/2000/svg">
  <path d="M13.9304 1.40002C11.0196 1.40002 8.38223 2.54233 6.45014 4.39648C6.1712 4.66417 5.72806 4.65505 5.46037 4.37612C5.19267 4.09718 5.20179 3.65406 5.48073 3.38637C7.66489 1.29032 10.6465 0 13.9304 0C20.3834 0 25.6722 4.98347 26.0371 11.2828L26.8082 10.5217C27.0834 10.2501 27.5266 10.253 27.7982 10.5281C28.0698 10.8033 28.0669 11.2465 27.7917 11.5181L25.849 13.4356C25.5763 13.7047 25.1381 13.7047 24.8655 13.4356L22.9227 11.5181C22.6475 11.2465 22.6446 10.8033 22.9162 10.5281C23.1878 10.253 23.631 10.2501 23.9062 10.5217L24.6312 11.2373C24.2457 5.74813 19.6099 1.40002 13.9304 1.40002Z" fill="#006BD6"/>
  <path d="M5.13567 5.86658C5.35354 5.54662 5.27075 5.11208 4.95075 4.896C4.63074 4.67993 4.19471 4.76414 3.97684 5.0841C3.71124 5.47415 3.46724 5.88258 3.24703 6.30825C3.06926 6.65189 3.20393 7.07314 3.54783 7.24914C3.89173 7.42514 4.31463 7.28924 4.4924 6.9456C4.68654 6.57032 4.9016 6.21033 5.13567 5.86658Z" fill="#006BD6"/>
  <path d="M14.0696 23.3762C16.9804 23.3762 19.6178 22.2338 21.5499 20.3797C21.8288 20.112 22.2719 20.1211 22.5396 20.4001C22.8073 20.679 22.7982 21.1221 22.5193 21.3898C20.3351 23.4859 17.3535 24.7762 14.0696 24.7762C7.61661 24.7762 2.32777 19.7927 1.96287 13.4934L1.19178 14.2545C0.916623 14.5261 0.473401 14.5232 0.201812 14.248C-0.0697735 13.9729 -0.0668814 13.5297 0.208272 13.2581L2.15104 11.3405C2.42366 11.0715 2.86192 11.0715 3.13454 11.3405L5.07731 13.2581C5.35246 13.5297 5.35536 13.9729 5.08377 14.248C4.81218 14.5232 4.36896 14.5261 4.09381 14.2545L3.36876 13.5389C3.75435 19.028 8.3901 23.3761 14.0696 23.3762Z" fill="#006BD6"/>
  <path d="M22.8643 18.9096C22.6465 19.2295 22.7293 19.6641 23.0493 19.8802C23.3693 20.0962 23.8053 20.012 24.0232 19.6921C24.2888 19.302 24.5328 18.8936 24.753 18.4679C24.9307 18.1243 24.7961 17.703 24.4522 17.527C24.1083 17.351 23.6854 17.4869 23.5076 17.8306C23.3135 18.2059 23.0984 18.5658 22.8643 18.9096Z" fill="#006BD6"/>
</svg>
