<svg width="104" height="104" viewBox="0 0 104 104" fill="none" xmlns="http://www.w3.org/2000/svg">
    <g filter="url(#filter0_dd_2782_67114)">
        <path d="M88 44C88 63.8823 71.8823 80 52 80C32.1177 80 16 63.8823 16 44C16 24.1177 32.1177 8 52 8C71.8823 8 88 24.1177 88 44Z" fill="url(#paint0_radial_2782_67114)"/>
        <path d="M39.3462 48.6629C39.3462 46.5664 37.6466 44.8668 35.5501 44.8668C33.4535 44.8668 31.7539 46.5664 31.7539 48.6629C31.7539 50.7595 33.4535 52.4591 35.5501 52.4591C37.6466 52.4591 39.3462 50.7595 39.3462 48.6629Z" fill="white"/>
        <path d="M40.0194 27.943C39.9467 27.9575 39.8726 27.9634 39.7987 27.9692C39.0742 28.026 38.5039 28.6319 38.5039 29.3711C38.5039 30.1103 39.0742 30.7162 39.7987 30.773C39.8726 30.7788 39.9467 30.7847 40.0194 30.7992L41.5184 31.099C41.9638 31.1881 42.3119 31.5362 42.401 31.9815L42.7008 33.4806C42.7153 33.5533 42.7212 33.6274 42.727 33.7012C42.7837 34.4258 43.3897 34.9961 44.1289 34.9961C44.868 34.9961 45.474 34.4258 45.5308 33.7012C45.5366 33.6274 45.5424 33.5533 45.557 33.4806L45.8568 31.9815C45.9459 31.5362 46.294 31.1881 46.7393 31.099L48.2384 30.7992C48.311 30.7847 48.3851 30.7788 48.459 30.773C49.1836 30.7162 49.7539 30.1103 49.7539 29.3711C49.7539 28.6319 49.1836 28.026 48.459 27.9692C48.3851 27.9634 48.311 27.9575 48.2384 27.943L46.7393 27.6432C46.294 27.5541 45.9459 27.206 45.8568 26.7607L45.557 25.2616C45.5424 25.1889 45.5366 25.1148 45.5308 25.041C45.474 24.3164 44.868 23.7461 44.1289 23.7461C43.3897 23.7461 42.7837 24.3164 42.727 25.041C42.7212 25.1148 42.7153 25.1889 42.7008 25.2616L42.401 26.7607C42.3119 27.206 41.9638 27.5541 41.5184 27.6432L40.0194 27.943Z" fill="white"/>
        <path d="M57.3639 59.6064C57.3639 57.0439 55.2866 54.9666 52.7242 54.9666C50.1617 54.9666 48.0844 57.0439 48.0844 59.6064C48.0844 62.1688 50.1617 64.2461 52.7242 64.2461C55.2866 64.2461 57.3639 62.1688 57.3639 59.6064Z" fill="white"/>
        <path d="M68.3536 47.88C68.3536 45.3176 66.2764 43.2403 63.7139 43.2403C61.1514 43.2403 59.0742 45.3176 59.0742 47.88C59.0742 50.4425 61.1514 52.5198 63.7139 52.5198C66.2764 52.5198 68.3536 50.4425 68.3536 47.88Z" fill="white"/>
        <path d="M72.2461 30.9476C72.2461 28.851 70.5465 27.1514 68.45 27.1514C66.3534 27.1514 64.6538 28.851 64.6538 30.9476C64.6538 33.0441 66.3534 34.7437 68.45 34.7437C70.5465 34.7437 72.2461 33.0441 72.2461 30.9476Z" fill="white"/>
        <path fill-rule="evenodd" clip-rule="evenodd" d="M40.3008 52.0405C40.532 51.6359 41.0474 51.4953 41.452 51.7265L47.3571 55.1008C47.7617 55.332 47.9023 55.8475 47.6711 56.252C47.4399 56.6566 46.9245 56.7972 46.5199 56.566L40.6148 53.1917C40.2102 52.9605 40.0696 52.445 40.3008 52.0405Z" fill="white"/>
        <path fill-rule="evenodd" clip-rule="evenodd" d="M41.3761 33.9727C41.8019 34.1619 41.9937 34.6606 41.8044 35.0864L38.43 42.6787C38.2408 43.1045 37.7422 43.2963 37.3163 43.107C36.8905 42.9178 36.6987 42.4192 36.888 41.9933L40.2623 34.401C40.4516 33.9752 40.9502 33.7834 41.3761 33.9727Z" fill="white"/>
        <path fill-rule="evenodd" clip-rule="evenodd" d="M50.5585 54.1098C50.1127 54.2455 49.6413 53.9942 49.5056 53.5484L44.4467 36.9293C44.311 36.4835 44.5623 36.0121 45.0081 35.8764C45.4539 35.7407 45.9253 35.9921 46.061 36.4379L51.12 53.0569C51.2557 53.5027 51.0043 53.9741 50.5585 54.1098Z" fill="white"/>
        <path fill-rule="evenodd" clip-rule="evenodd" d="M59.3532 43.7683C59.028 44.1021 58.4939 44.1092 58.16 43.784L48.6026 34.4755C48.2688 34.1504 48.2618 33.6162 48.5869 33.2824C48.912 32.9486 49.4462 32.9415 49.78 33.2667L59.3374 42.5752C59.6713 42.9003 59.6783 43.4345 59.3532 43.7683Z" fill="white"/>
        <path fill-rule="evenodd" clip-rule="evenodd" d="M51.1588 29.6175C51.1945 29.1529 51.6001 28.8052 52.0647 28.8409L63.0314 29.6845C63.496 29.7202 63.8437 30.1259 63.8079 30.5905C63.7722 31.0551 63.3666 31.4028 62.902 31.367L51.9353 30.5234C51.4707 30.4877 51.123 30.0821 51.1588 29.6175Z" fill="white"/>
    </g>
    <defs>
        <filter id="filter0_dd_2782_67114" x="0" y="0" width="104" height="104" filterUnits="userSpaceOnUse" color-interpolation-filters="sRGB">
            <feFlood flood-opacity="0" result="BackgroundImageFix"/>
            <feColorMatrix in="SourceAlpha" type="matrix" values="0 0 0 0 0 0 0 0 0 0 0 0 0 0 0 0 0 0 127 0" result="hardAlpha"/>
            <feOffset dy="8"/>
            <feGaussianBlur stdDeviation="8"/>
            <feColorMatrix type="matrix" values="0 0 0 0 0 0 0 0 0 0 0 0 0 0 0 0 0 0 0.08 0"/>
            <feBlend mode="normal" in2="BackgroundImageFix" result="effect1_dropShadow_2782_67114"/>
            <feColorMatrix in="SourceAlpha" type="matrix" values="0 0 0 0 0 0 0 0 0 0 0 0 0 0 0 0 0 0 127 0" result="hardAlpha"/>
            <feOffset/>
            <feGaussianBlur stdDeviation="2"/>
            <feColorMatrix type="matrix" values="0 0 0 0 0 0 0 0 0 0 0 0 0 0 0 0 0 0 0.04 0"/>
            <feBlend mode="normal" in2="effect1_dropShadow_2782_67114" result="effect2_dropShadow_2782_67114"/>
            <feBlend mode="normal" in="SourceGraphic" in2="effect2_dropShadow_2782_67114" result="shape"/>
        </filter>
        <radialGradient id="paint0_radial_2782_67114" cx="0" cy="0" r="1" gradientUnits="userSpaceOnUse" gradientTransform="translate(16 8) rotate(45) scale(101.823)">
            <stop stop-color="#0ECAD4"/>
            <stop offset="1" stop-color="#006BD6"/>
        </radialGradient>
    </defs>
</svg>
