<svg width="20" height="20" viewBox="0 0 20 20" fill="none" xmlns="http://www.w3.org/2000/svg">
<path d="M16.6666 4.16683C16.6666 4.8335 13.6833 5.8335 9.99996 5.8335C6.30829 5.8335 3.33329 4.8335 3.33329 4.16683C3.33329 3.70016 2.95829 3.3335 2.49996 3.3335C2.03329 3.3335 1.66663 3.70016 1.66663 4.16683C1.66663 6.25016 5.39163 7.50016 9.99996 7.50016C14.6 7.50016 18.3333 6.25016 18.3333 4.16683C18.3333 3.70016 17.9583 3.3335 17.5 3.3335C17.0333 3.3335 16.6666 3.70016 16.6666 4.16683ZM18.3333 4.16683C18.3333 2.07516 14.6 0.833496 9.99996 0.833496C5.39163 0.833496 1.66663 2.07516 1.66663 4.16683C1.66663 4.62516 2.03329 5.00016 2.49996 5.00016C2.95829 5.00016 3.33329 4.62516 3.33329 4.16683C3.33329 3.49183 6.30829 2.50016 9.99996 2.50016C13.6833 2.50016 16.6666 3.49183 16.6666 4.16683C16.6666 4.62516 17.0333 5.00016 17.5 5.00016C17.9583 5.00016 18.3333 4.62516 18.3333 4.16683ZM16.6666 4.16683V15.8335C16.6666 16.5085 13.7 17.5002 9.99996 17.5002C6.29163 17.5002 3.33329 16.5085 3.33329 15.8335V4.16683C3.33329 3.70016 2.95829 3.3335 2.49996 3.3335C2.03329 3.3335 1.66663 3.70016 1.66663 4.16683V15.8335C1.66663 17.9252 5.37496 19.1668 9.99996 19.1668C14.6166 19.1668 18.3333 17.9252 18.3333 15.8335V4.16683C18.3333 3.70016 17.9583 3.3335 17.5 3.3335C17.0333 3.3335 16.6666 3.70016 16.6666 4.16683ZM16.6666 10.0002C16.6666 10.6752 13.7 11.6668 9.99996 11.6668C6.29163 11.6668 3.33329 10.6752 3.33329 10.0002C3.33329 9.5335 2.95829 9.16683 2.49996 9.16683C2.03329 9.16683 1.66663 9.5335 1.66663 10.0002C1.66663 12.0918 5.37496 13.3335 9.99996 13.3335C14.6166 13.3335 18.3333 12.0918 18.3333 10.0002C18.3333 9.5335 17.9583 9.16683 17.5 9.16683C17.0333 9.16683 16.6666 9.5335 16.6666 10.0002Z" fill="#73858C"/>
</svg>
