<svg xmlns="http://www.w3.org/2000/svg" width="17" height="17" viewBox="0 0 17 17" fill="none">
  <path d="M8.25 6C8.6625 6 9.0075 5.6625 9.0075 5.25C9.0075 4.83 8.6625 4.5 8.25 4.5C7.83 4.5 7.5 4.83 7.5 5.25C7.5 5.6625 7.83 6 8.25 6ZM9 11.25V8.25C9 7.83 8.6625 7.5 8.25 7.5C7.83 7.5 7.5 7.83 7.5 8.25V11.25C7.5 11.6625 7.83 12 8.25 12C8.6625 12 9 11.6625 9 11.25ZM8.25 0C3.69 0 0 3.69 0 8.25C0 12.8025 3.69 16.5 8.25 16.5C12.8025 16.5 16.5 12.8025 16.5 8.25C16.5 3.69 12.8025 0 8.25 0ZM8.25 15C4.515 15 1.5 11.9775 1.5 8.25C1.5 4.515 4.515 1.5 8.25 1.5C11.9775 1.5 15 4.515 15 8.25C15 11.9775 11.9775 15 8.25 15Z" fill="#c47209"/>
</svg>
