<svg xmlns="http://www.w3.org/2000/svg" width="20" height="20" viewBox="0 0 20 20" fill="none">
  <path d="M8.572 3.802L1.514 15.998C1.348 16.286 1.26 16.613 1.26 16.946C1.26 17.28 1.348 17.607 1.514 17.895C1.68 18.183 1.918 18.422 2.206 18.588C2.493 18.754 2.82 18.842 3.154 18.842H17.27C17.603 18.842 17.93 18.754 18.218 18.588C18.506 18.422 18.744 18.183 18.91 17.895C19.076 17.607 19.164 17.28 19.164 16.946C19.164 16.613 19.076 16.286 18.91 15.998L11.852 3.802C11.686 3.514 11.448 3.276 11.16 3.11C10.872 2.944 10.546 2.856 10.212 2.856C9.878 2.856 9.552 2.944 9.264 3.11C8.976 3.276 8.738 3.514 8.572 3.802Z" stroke="#c47209" stroke-width="1.5" stroke-linecap="round" stroke-linejoin="round"/>
  <path d="M10.212 8.342V11.342" stroke="#c47209" stroke-width="1.5" stroke-linecap="round" stroke-linejoin="round"/>
  <path d="M10.212 14.342H10.222" stroke="#c47209" stroke-width="1.5" stroke-linecap="round" stroke-linejoin="round"/>
</svg>
