<svg width="1254" height="400" viewBox="0 0 1254 400" fill="none" xmlns="http://www.w3.org/2000/svg">
<path d="M1156.27 160.01C1155.68 158.62 1154.85 157.4 1153.8 156.34C1152.74 155.29 1151.52 154.46 1150.13 153.87C1148.74 153.28 1147.25 152.98 1145.65 152.98C1144.05 152.98 1142.57 153.28 1141.17 153.87C1139.78 154.46 1138.56 155.29 1137.5 156.34C1136.44 157.4 1135.62 158.62 1135.02 160.01C1134.43 161.4 1134.13 162.89 1134.13 164.49C1134.13 166.09 1134.43 167.57 1135.02 168.97C1135.61 170.36 1136.44 171.58 1137.5 172.64C1138.55 173.7 1139.78 174.52 1141.17 175.11C1142.56 175.7 1144.05 176 1145.65 176C1147.25 176 1148.73 175.7 1150.13 175.11C1151.52 174.52 1152.74 173.69 1153.8 172.64C1154.86 171.58 1155.68 170.36 1156.27 168.97C1156.86 167.58 1157.16 166.09 1157.16 164.49C1157.16 162.89 1156.86 161.41 1156.27 160.01ZM1153.75 169.19C1152.91 170.61 1151.78 171.73 1150.36 172.58C1148.94 173.42 1147.37 173.85 1145.65 173.85C1143.93 173.85 1142.35 173.43 1140.94 172.58C1139.53 171.74 1138.4 170.61 1137.55 169.19C1136.71 167.77 1136.28 166.2 1136.28 164.48C1136.28 162.76 1136.7 161.18 1137.55 159.77C1138.39 158.36 1139.52 157.23 1140.94 156.38C1142.36 155.54 1143.93 155.11 1145.65 155.11C1147.37 155.11 1148.95 155.53 1150.36 156.38C1151.78 157.22 1152.9 158.35 1153.75 159.77C1154.59 161.19 1155.02 162.76 1155.02 164.48C1155.02 166.2 1154.6 167.78 1153.75 169.19Z" fill="#002447"/>
<path d="M1148.32 165.44C1148.32 165.44 1148.34 165.44 1148.35 165.43C1148.87 165.15 1149.3 164.75 1149.64 164.23C1149.98 163.71 1150.15 163.09 1150.15 162.37C1150.15 161.65 1149.98 161.04 1149.65 160.55C1149.32 160.06 1148.9 159.68 1148.4 159.43C1147.9 159.18 1147.38 159.05 1146.84 159.05H1142C1141.86 159.05 1141.75 159.16 1141.75 159.3V169.42C1141.75 169.56 1141.86 169.67 1142 169.67H1143.36C1143.5 169.67 1143.61 169.56 1143.61 169.42V165.86H1146.53L1148.45 169.54C1148.49 169.62 1148.58 169.67 1148.67 169.67H1150.19C1150.37 169.67 1150.49 169.48 1150.4 169.32L1148.33 165.45L1148.32 165.44ZM1147.55 163.87C1147.16 164.22 1146.72 164.4 1146.23 164.4H1143.6V160.5H1146.28C1146.74 160.5 1147.16 160.64 1147.55 160.93C1147.94 161.22 1148.13 161.7 1148.13 162.37C1148.13 163.04 1147.94 163.52 1147.55 163.87Z" fill="#002447"/>
<path d="M483.93 152.01H460.88C460.41 152.01 460 152.33 459.9 152.79C458.34 160.07 446.48 215.72 445.82 220.39C445.77 220.74 445.55 220.74 445.5 220.39C444.76 215.72 431.93 159.99 430.27 152.77C430.17 152.32 429.76 152 429.3 152H407.79C407.32 152 406.92 152.31 406.82 152.77C405.15 159.98 392.28 215.72 391.56 220.39C391.49 220.82 391.24 220.82 391.17 220.39C390.49 215.72 378.67 160.08 377.12 152.79C377.02 152.33 376.62 152 376.14 152H353.09C352.43 152 351.95 152.62 352.12 153.26L377.19 247.13C377.31 247.57 377.7 247.87 378.16 247.87H402.4C402.86 247.87 403.26 247.56 403.37 247.11C404.89 240.7 415.55 195.78 417.96 185.27C418.08 184.75 418.81 184.75 418.93 185.27C421.37 195.77 432.16 240.71 433.69 247.11C433.8 247.56 434.2 247.87 434.66 247.87H458.84C459.29 247.87 459.69 247.57 459.81 247.13L484.88 153.26C485.05 152.63 484.57 152 483.91 152L483.93 152.01Z" fill="#002447"/>
<path d="M558.52 156.19C553.29 153.4 547.07 152.01 539.86 152.01H502.59C502.04 152.01 501.59 152.46 501.59 153.01V246.88C501.59 247.43 502.04 247.88 502.59 247.88H523.3C523.85 247.88 524.3 247.43 524.3 246.88V217.96H539.21C546.54 217.96 552.87 216.59 558.19 213.84C563.51 211.1 567.61 207.28 570.48 202.39C573.35 197.5 574.79 191.75 574.79 185.15C574.79 178.55 573.38 172.82 570.57 167.84C567.76 162.86 563.74 158.98 558.51 156.19H558.52ZM551.41 192.93C550.21 195.16 548.41 196.9 546 198.14C543.6 199.38 540.62 200.01 537.06 200.01H524.31V170.41H537C540.56 170.41 543.55 171.01 545.97 172.21C548.39 173.41 550.2 175.12 551.41 177.33C552.61 179.54 553.21 182.15 553.21 185.15C553.21 188.15 552.61 190.71 551.41 192.94V192.93Z" fill="#002447"/>
<path d="M679.93 163.87C676.2 160.11 672 157.31 667.33 155.47C662.66 153.63 657.8 152.71 652.75 152.71C644.73 152.71 637.69 154.77 631.63 158.89C625.56 163.01 620.84 168.66 617.47 175.85C614.09 183.04 612.41 191.28 612.41 200.55C612.41 209.82 614.13 218.04 617.56 225.17C620.99 232.31 625.85 237.89 632.14 241.93C638.43 245.96 645.88 247.98 654.5 247.98C660.7 247.98 666.19 246.98 670.97 244.97C675.75 242.97 679.71 240.32 682.87 237.02C685.75 234.01 687.91 230.78 689.35 227.32C689.57 226.78 689.27 226.17 688.72 225.99L679.98 223.21C679.49 223.06 678.98 223.3 678.77 223.76C677.68 226.14 676.14 228.35 674.14 230.39C671.92 232.67 669.17 234.5 665.91 235.87C662.64 237.24 658.87 237.93 654.59 237.93C648.28 237.93 642.8 236.44 638.16 233.44C633.52 230.45 629.94 226.25 627.41 220.84C625.05 215.79 623.81 209.95 623.65 203.34H690.97C691.52 203.34 691.97 202.89 691.97 202.34V198.48C691.97 190.69 690.9 183.91 688.76 178.14C686.62 172.38 683.68 167.61 679.95 163.85L679.93 163.87ZM627.28 179.55C629.72 174.5 633.13 170.44 637.49 167.36C641.85 164.29 646.95 162.75 652.77 162.75C658.59 162.75 663.67 164.26 667.84 167.28C672.01 170.3 675.22 174.42 677.47 179.63C679.3 183.87 680.38 188.57 680.72 193.71H623.69C623.98 188.62 625.17 183.9 627.28 179.55Z" fill="#002447"/>
<path d="M768.03 156.62C763.34 154.01 757.86 152.71 751.6 152.71C744.63 152.71 738.44 154.49 733.03 158.06C728.71 160.91 725.32 165.2 722.84 170.89L722.78 154.94C722.78 154.39 722.33 153.94 721.78 153.94H712.99C712.44 153.94 711.99 154.39 711.99 154.94V245C711.99 245.55 712.44 246 712.99 246H722.19C722.74 246 723.19 245.55 723.19 245V188.61C723.19 183.34 724.3 178.77 726.52 174.9C728.74 171.03 731.78 168.07 735.62 166.01C739.46 163.95 743.8 162.92 748.63 162.92C755.71 162.92 761.36 165.1 765.59 169.47C769.82 173.83 771.93 179.78 771.93 187.3V245.01C771.93 245.56 772.38 246.01 772.93 246.01H782.05C782.6 246.01 783.05 245.56 783.05 245.01V186.48C783.05 179.18 781.72 173.03 779.06 168.03C776.4 163.04 772.72 159.23 768.03 156.63V156.62Z" fill="#002447"/>
<path d="M879.6 153.94H870.73C870.18 153.94 869.73 154.39 869.73 154.94V171.64H868.58C867.37 168.84 865.63 165.97 863.35 163.04C861.07 160.1 858.07 157.65 854.33 155.67C850.6 153.69 845.93 152.71 840.33 152.71C832.81 152.71 826.19 154.69 820.48 158.64C814.77 162.59 810.32 168.1 807.14 175.15C803.96 182.2 802.36 190.43 802.36 199.81C802.36 209.19 803.98 217.27 807.22 224.02C810.46 230.77 814.92 235.96 820.6 239.58C826.28 243.2 832.77 245.01 840.07 245.01C845.56 245.01 850.17 244.12 853.9 242.33C857.63 240.55 860.67 238.27 863 235.5C865.33 232.73 867.1 229.91 868.31 227.06H869.38V247.73C869.38 256.18 866.91 262.43 861.97 266.46C857.03 270.5 850.5 272.51 842.37 272.51C837.26 272.51 832.95 271.81 829.44 270.41C825.93 269.01 823.06 267.2 820.83 264.98C818.88 263.03 817.28 261.03 816.03 258.97C815.74 258.5 815.13 258.34 814.66 258.62L807.11 263.2C806.66 263.48 806.49 264.06 806.74 264.53C808.51 267.81 810.89 270.74 813.88 273.33C817.12 276.13 821.11 278.34 825.86 279.96C830.61 281.58 836.11 282.39 842.37 282.39C849.73 282.39 856.29 281.17 862.05 278.73C867.81 276.29 872.34 272.54 875.64 267.49C878.93 262.44 880.58 256.02 880.58 248.22V154.94C880.58 154.39 880.13 153.94 879.58 153.94H879.6ZM866.28 218.54C864.08 223.84 860.91 227.9 856.77 230.73C852.62 233.56 847.62 234.97 841.74 234.97C835.86 234.97 830.68 233.48 826.51 230.48C822.34 227.49 819.15 223.33 816.96 218.01C814.76 212.69 813.67 206.54 813.67 199.56C813.67 192.58 814.75 186.5 816.92 180.95C819.09 175.41 822.26 171 826.43 167.73C830.6 164.46 835.71 162.83 841.75 162.83C847.79 162.83 852.78 164.41 856.9 167.56C861.02 170.72 864.16 175.05 866.33 180.57C868.5 186.09 869.58 192.41 869.58 199.55C869.58 206.69 868.48 213.23 866.29 218.53L866.28 218.54Z" fill="#002447"/>
<path d="M919.62 153.94H910.42C909.868 153.94 909.42 154.388 909.42 154.94V245C909.42 245.552 909.868 246 910.42 246H919.62C920.172 246 920.62 245.552 920.62 245V154.94C920.62 154.388 920.172 153.94 919.62 153.94Z" fill="#002447"/>
<path d="M915.02 140.89C918.516 140.89 921.35 138.056 921.35 134.56C921.35 131.064 918.516 128.23 915.02 128.23C911.524 128.23 908.69 131.064 908.69 134.56C908.69 138.056 911.524 140.89 915.02 140.89Z" fill="#002447"/>
<path d="M1006.3 156.62C1001.61 154.01 996.13 152.71 989.87 152.71C982.9 152.71 976.71 154.49 971.3 158.06C966.98 160.91 963.59 165.2 961.11 170.89L961.05 154.94C961.05 154.39 960.6 153.94 960.05 153.94H951.26C950.71 153.94 950.26 154.39 950.26 154.94V245C950.26 245.55 950.71 246 951.26 246H960.46C961.01 246 961.46 245.55 961.46 245V188.61C961.46 183.34 962.57 178.77 964.79 174.9C967.01 171.03 970.05 168.07 973.89 166.01C977.73 163.95 982.07 162.92 986.9 162.92C993.98 162.92 999.63 165.1 1003.86 169.47C1008.09 173.83 1010.2 179.78 1010.2 187.3V245.01C1010.2 245.56 1010.65 246.01 1011.2 246.01H1020.32C1020.87 246.01 1021.32 245.56 1021.32 245.01V186.48C1021.32 179.18 1019.99 173.03 1017.33 168.03C1014.67 163.04 1010.99 159.23 1006.3 156.63V156.62Z" fill="#002447"/>
<path d="M1108.78 163.87C1105.05 160.11 1100.85 157.31 1096.18 155.47C1091.51 153.63 1086.65 152.71 1081.6 152.71C1073.58 152.71 1066.54 154.77 1060.48 158.89C1054.41 163.01 1049.69 168.66 1046.32 175.85C1042.94 183.04 1041.26 191.28 1041.26 200.55C1041.26 209.82 1042.98 218.04 1046.41 225.17C1049.84 232.31 1054.7 237.89 1060.99 241.93C1067.28 245.96 1074.73 247.98 1083.35 247.98C1089.55 247.98 1095.04 246.98 1099.82 244.97C1104.6 242.97 1108.56 240.32 1111.72 237.02C1114.6 234.01 1116.76 230.78 1118.2 227.32C1118.42 226.78 1118.12 226.17 1117.57 225.99L1108.83 223.21C1108.34 223.06 1107.83 223.3 1107.62 223.76C1106.53 226.14 1104.99 228.35 1102.99 230.39C1100.77 232.67 1098.02 234.5 1094.76 235.87C1091.49 237.24 1087.72 237.93 1083.44 237.93C1077.13 237.93 1071.65 236.44 1067.01 233.44C1062.37 230.45 1058.79 226.25 1056.26 220.84C1053.9 215.79 1052.66 209.95 1052.5 203.34H1119.82C1120.37 203.34 1120.82 202.89 1120.82 202.34V198.48C1120.82 190.69 1119.75 183.91 1117.61 178.14C1115.47 172.38 1112.53 167.61 1108.8 163.85L1108.78 163.87ZM1056.12 179.55C1058.56 174.5 1061.97 170.44 1066.33 167.36C1070.69 164.29 1075.79 162.75 1081.61 162.75C1087.43 162.75 1092.51 164.26 1096.68 167.28C1100.85 170.3 1104.06 174.42 1106.31 179.63C1108.14 183.87 1109.22 188.57 1109.56 193.71H1052.53C1052.82 188.62 1054.01 183.9 1056.12 179.55Z" fill="#002447"/>
<path d="M229 304C230.66 304 232 302.66 232 301V258.49C232 256.9 231.37 255.37 230.24 254.25L217.75 241.76C216.62 240.63 215.1 240 213.51 240H186.48C184.89 240 183.36 240.63 182.24 241.76L169.75 254.25C168.62 255.38 167.99 256.9 167.99 258.49V301C167.99 302.66 169.33 304 170.99 304H229Z" fill="#0ECAD4"/>
<path d="M254.24 169.76L241.75 182.25C240.62 183.38 239.99 184.9 239.99 186.49V213.52C239.99 215.11 240.62 216.64 241.75 217.76L254.24 230.25C255.37 231.38 256.89 232.01 258.48 232.01H300.99C302.65 232.01 303.99 230.67 303.99 229.01V171.01C303.99 169.35 302.65 168.01 300.99 168.01H258.48C256.89 168.01 255.36 168.64 254.24 169.77V169.76Z" fill="#0ECAD4"/>
<path d="M171 96C169.34 96 168 97.34 168 99V141.51C168 143.1 168.63 144.63 169.76 145.75L182.25 158.24C183.38 159.37 184.9 160 186.49 160H213.52C215.11 160 216.64 159.37 217.76 158.24L230.25 145.75C231.38 144.62 232.01 143.1 232.01 141.51V99C232.01 97.34 230.67 96 229.01 96H171Z" fill="#0ECAD4"/>
<path d="M301 240H258.49C256.9 240 255.37 240.63 254.25 241.76L241.76 254.25C240.63 255.38 240 256.9 240 258.49V301C240 302.66 241.34 304 243 304H301C302.66 304 304 302.66 304 301V243C304 241.34 302.66 240 301 240Z" fill="#0ECAD4"/>
<path d="M157 96H114.49C112.89 96 111.37 96.63 110.24 97.76L97.76 110.24C96.63 111.37 96 112.89 96 114.49V157C96 158.66 97.34 160 99 160H141.51C143.1 160 144.63 159.37 145.75 158.24L158.24 145.75C159.37 144.62 160 143.1 160 141.51V99C160 97.34 158.66 96 157 96Z" fill="#0ECAD4"/>
<path d="M240 99V141.51C240 143.1 240.63 144.63 241.76 145.75L254.25 158.24C255.38 159.37 256.9 160 258.49 160H301C302.66 160 304 158.66 304 157V99C304 97.34 302.66 96 301 96H243C241.34 96 240 97.34 240 99Z" fill="#0ECAD4"/>
<path d="M200 216C191.16 216 184 208.84 184 200C184 191.16 191.17 184 200 184C208.83 184 216 191.16 216 200C216 208.84 208.83 216 200 216Z" fill="#0ECAD4"/>
<path d="M96 243V301C96 302.66 97.34 304 99 304H157C158.66 304 160 302.66 160 301V258.49C160 256.9 159.37 255.37 158.24 254.25L145.75 241.76C144.62 240.63 143.1 240 141.51 240H99C97.34 240 96 241.34 96 243Z" fill="#0ECAD4"/>
<path d="M158.24 182.24L145.75 169.75C144.62 168.62 143.1 167.99 141.51 167.99H99C97.34 168 96 169.34 96 171V229C96 230.66 97.34 232 99 232H142.2C143.79 232 145.32 231.37 146.44 230.24L158.24 218.45C159.37 217.32 160 215.8 160 214.21V186.49C160 184.9 159.37 183.37 158.24 182.25V182.24Z" fill="#0ECAD4"/>
</svg>
