<svg width="21" height="15" viewBox="0 0 21 15" fill="none" xmlns="http://www.w3.org/2000/svg">
<path d="M20.4605 3.08H6.88933C6.59881 3.08 6.3498 2.84 6.3498 2.56C6.3498 2.28 6.59881 2.04 6.88933 2.04H20.4605C20.751 2.04 21 2.28 21 2.56C21 2.84 20.751 3.08 20.4605 3.08Z" fill="black"/>
<path d="M2.65613 3.08H0.539526C0.249012 3.08 0 2.84 0 2.56C0 2.28 0.249012 2.04 0.539526 2.04H2.65613C2.94664 2.04 3.19565 2.28 3.19565 2.56C3.19565 2.84 2.98814 3.08 2.65613 3.08Z" fill="black"/>
<path d="M20.4605 8H16.8913C16.6008 8 16.3518 7.76 16.3518 7.48C16.3518 7.2 16.6008 6.96 16.8913 6.96H20.4605C20.751 6.96 21 7.2 21 7.48C21 7.76 20.751 8 20.4605 8Z" fill="black"/>
<path d="M12.6581 8H0.539526C0.249012 8 0 7.76 0 7.48C0 7.2 0.249012 6.96 0.539526 6.96H12.6581C12.9486 6.96 13.1976 7.2 13.1976 7.48C13.1976 7.76 12.9486 8 12.6581 8Z" fill="black"/>
<path d="M20.4605 12.96H6.88933C6.59881 12.96 6.3498 12.72 6.3498 12.44C6.3498 12.16 6.59881 11.92 6.88933 11.92H20.4605C20.751 11.92 21 12.16 21 12.44C21 12.72 20.751 12.96 20.4605 12.96Z" fill="black"/>
<path d="M2.65613 12.96H0.539526C0.249012 12.96 0 12.72 0 12.44C0 12.12 0.249012 11.88 0.539526 11.88H2.65613C2.94664 11.88 3.19565 12.12 3.19565 12.4C3.23715 12.72 2.98814 12.96 2.65613 12.96Z" fill="black"/>
<path d="M4.77273 5.12C3.32016 5.12 2.1166 3.96 2.1166 2.56C2.1166 1.16 3.32016 0 4.77273 0C6.2253 0 7.42885 1.16 7.42885 2.56C7.42885 3.96 6.2668 5.12 4.77273 5.12ZM4.77273 1.04C3.90119 1.04 3.19565 1.72 3.19565 2.56C3.19565 3.4 3.90119 4.08 4.77273 4.08C5.64427 4.08 6.3498 3.4 6.3498 2.56C6.3498 1.72 5.64427 1.04 4.77273 1.04Z" fill="black"/>
<path d="M14.7747 10.04C13.3221 10.04 12.1186 8.88 12.1186 7.48C12.1186 6.08 13.3221 4.92 14.7747 4.92C16.2273 4.92 17.4308 6.08 17.4308 7.48C17.4308 8.88 16.2688 10.04 14.7747 10.04ZM14.7747 5.96C13.9032 5.96 13.1976 6.64 13.1976 7.48C13.1976 8.32 13.9032 9 14.7747 9C15.6462 9 16.3518 8.32 16.3518 7.48C16.3518 6.64 15.6462 5.96 14.7747 5.96Z" fill="black"/>
<path d="M4.77273 15C3.32016 15 2.1166 13.84 2.1166 12.44C2.1166 11.04 3.32016 9.88 4.77273 9.88C6.2253 9.88 7.42885 11.04 7.42885 12.44C7.47036 13.84 6.2668 15 4.77273 15ZM4.77273 10.92C3.90119 10.92 3.19565 11.6 3.19565 12.44C3.19565 13.28 3.90119 13.96 4.77273 13.96C5.64427 13.96 6.3498 13.28 6.3498 12.44C6.3498 11.6 5.64427 10.92 4.77273 10.92Z" fill="black"/>
</svg>
