<svg width="23" height="24" viewBox="0 0 23 24" fill="none" xmlns="http://www.w3.org/2000/svg">
<path d="M21.406 6.64206H20.8756C20.4385 6.64206 20.0874 7.00053 20.0874 7.44095C20.0874 7.88136 20.4411 8.23984 20.8756 8.23984L21.4212 8.2552L21.406 18.5716H15.6491C15.0403 18.5716 14.4669 18.8405 14.0779 19.3116L11.4886 22.392L8.92466 19.3116C8.53311 18.8405 7.95969 18.5716 7.35091 18.5716L1.5788 18.5563L1.59396 8.23984H2.12444C2.56145 8.23984 2.91258 7.88136 2.91258 7.44095C2.91258 7.00053 2.55892 6.64206 2.12444 6.64206H1.59396C0.714882 6.64206 0 7.36669 0 8.25776V18.5588C0 19.4499 0.714882 20.1745 1.59396 20.1745H7.35091C7.49237 20.1745 7.62625 20.236 7.71719 20.3461L10.2812 23.4264C10.5868 23.79 11.0289 24 11.5013 24C11.9736 24 12.4157 23.79 12.7188 23.4264L15.2828 20.3435C15.3737 20.2334 15.5051 20.172 15.6491 20.172H21.406C22.2851 20.172 23 19.4473 23 18.5563V8.2552C23 7.36413 22.2851 6.6395 21.406 6.6395V6.64206Z" fill="currentColor"/>
<path d="M11.5013 14.887C15.5506 14.887 18.8446 11.5481 18.8446 7.44351C18.8446 3.33895 15.5506 0 11.5013 0C7.45195 0 4.15794 3.33895 4.15794 7.44351C4.15794 11.5481 7.45195 14.887 11.5013 14.887ZM6.91642 10.9668C7.37869 10.8567 7.84602 10.762 8.31587 10.6852C8.46996 11.4072 8.6771 12.0781 8.93476 12.6645C8.13904 12.2625 7.44942 11.6787 6.91895 10.9668H6.91642ZM5.73674 7.44351C5.73674 6.71119 5.87567 6.01216 6.1207 5.36434C6.76485 5.53334 7.41406 5.67417 8.07084 5.78171C8.01779 6.32711 7.98495 6.88275 7.98495 7.44095C7.98495 7.99915 8.01527 8.55734 8.07084 9.10274C7.41406 9.20772 6.76233 9.35111 6.1207 9.51755C5.8782 8.86973 5.73674 8.1707 5.73674 7.43839V7.44351ZM11.5013 1.60034C12.0166 1.60034 12.7113 2.65017 13.1104 4.3939C12.0393 4.48096 10.9607 4.48096 9.88962 4.3939C10.2913 2.6476 10.9834 1.60034 11.5013 1.60034ZM11.5013 6.07105C12.1252 6.07105 12.7466 6.03521 13.3655 5.98144C13.411 6.44233 13.4388 6.92884 13.4388 7.44351C13.4388 7.95818 13.411 8.4498 13.3655 8.9107C12.1252 8.80316 10.8773 8.80316 9.63954 8.9107C9.59407 8.4498 9.56628 7.96074 9.56628 7.44351C9.56628 6.92628 9.59407 6.44233 9.63954 5.98144C10.2584 6.03521 10.8773 6.07105 11.5038 6.07105H11.5013ZM17.2658 7.44351C17.2658 8.17582 17.1269 8.87485 16.8818 9.52267C16.2402 9.35367 15.5885 9.21284 14.9317 9.10786C14.9847 8.55991 15.0176 8.00427 15.0176 7.44607C15.0176 6.88787 14.9873 6.33223 14.9317 5.78683C15.5885 5.67929 16.2402 5.5359 16.8818 5.36946C17.1243 6.01472 17.2658 6.71375 17.2658 7.44863V7.44351ZM11.5013 13.2867C10.9859 13.2867 10.2913 12.2368 9.89215 10.4931C10.9632 10.4061 12.0418 10.4061 13.1129 10.4931C12.7113 12.2394 12.0191 13.2867 11.5013 13.2867ZM14.0728 12.6645C14.3305 12.0781 14.5376 11.4072 14.6917 10.6852C15.1616 10.762 15.6289 10.8542 16.0912 10.9668C15.5582 11.6787 14.8685 12.2599 14.0753 12.6645H14.0728ZM16.0886 3.91764C15.6264 4.02774 15.159 4.12248 14.6892 4.1993C14.5351 3.47722 14.328 2.80636 14.0703 2.21999C14.866 2.622 15.5556 3.2058 16.0861 3.91764H16.0886ZM8.93223 2.21999C8.67457 2.80636 8.46743 3.47722 8.31334 4.1993C7.84349 4.12248 7.37617 4.0303 6.91389 3.91764C7.4469 3.2058 8.13652 2.62456 8.92971 2.21999H8.93223Z" fill="currentColor"/>
</svg>
