<svg width="15" height="15" viewBox="0 0 15 15" fill="none" xmlns="http://www.w3.org/2000/svg">
<path d="M9.16667 1.66667C8.70833 1.66667 8.33333 1.29167 8.33333 0.833333C8.33333 0.375 8.70833 0 9.16667 0H14.1667C14.3917 0 14.6 0.0916667 14.7583 0.241667C14.9167 0.4 15 0.608333 15 0.833333V5.83333C15 6.29167 14.625 6.66667 14.1667 6.66667C13.7083 6.66667 13.3333 6.29167 13.3333 5.83333V2.84167L5.59167 10.5917C5.26667 10.9167 4.74167 10.9167 4.41667 10.5917C4.09167 10.2667 4.09167 9.74167 4.41667 9.41667L12.1583 1.66667H9.16667ZM0 3.33333C0 2.41667 0.75 1.66667 1.66667 1.66667H5.83333C6.29167 1.66667 6.66667 2.04167 6.66667 2.5C6.66667 2.95833 6.29167 3.33333 5.83333 3.33333H1.66667V13.3333H11.6667V9.16667C11.6667 8.70833 12.0417 8.33333 12.5 8.33333C12.9583 8.33333 13.3333 8.70833 13.3333 9.16667V13.3333C13.3333 14.25 12.5833 15 11.6667 15H1.66667C0.75 15 0 14.25 0 13.3333V3.33333Z" fill="white"/>
</svg>
