<svg width="16" height="22" viewBox="0 0 16 22" fill="none" xmlns="http://www.w3.org/2000/svg">
<path d="M1.85481 15.1686L0.890625 20.75H14.8713L13.9072 15.6337M14.8906 7.27093C14.8906 3.67093 11.8631 0.75 8.13167 0.75C4.40027 0.75 1.37272 3.67093 1.37272 7.27093C1.37272 8.86163 1.9898 10.3035 2.96845 11.4337L5.76941 15.1221L8.13167 18.4244L13.2949 11.4384C14.2784 10.3081 14.8906 8.86628 14.8906 7.27558V7.27093ZM8.13167 9.22907C6.83002 9.22907 5.77423 8.21047 5.77423 6.95465C5.77423 5.69884 6.83002 4.68023 8.13167 4.68023C9.43333 4.68023 10.4891 5.69884 10.4891 6.95465C10.4891 8.21047 9.43333 9.22907 8.13167 9.22907Z" stroke="#020000" stroke-width="1.5" stroke-miterlimit="10"/>
</svg>
