<svg width="24" height="24" viewBox="0 0 24 24" fill="none" xmlns="http://www.w3.org/2000/svg">
<path fill-rule="evenodd" clip-rule="evenodd" d="M2.28569 3.00019L21.7143 3C22.9766 2.99999 24 4.06332 24 5.375V19.6248C24 20.9365 22.9767 21.9998 21.7143 21.9998L2.28574 22C1.02336 22 0 20.9367 0 19.625V5.3752C0 4.06353 1.02333 3.0002 2.28569 3.00019ZM21.7143 4.1875L2.2857 4.18769C1.65452 4.1877 1.14286 4.71936 1.14286 5.3752V19.625C1.14286 20.2808 1.65454 20.8125 2.28573 20.8125L21.7143 20.8123C22.3455 20.8123 22.8571 20.2806 22.8571 19.6248V5.375C22.8571 4.71916 22.3455 4.1875 21.7143 4.1875Z" fill="#006BD6"/>
<path fill-rule="evenodd" clip-rule="evenodd" d="M17.2835 6.65214C17.2864 6.69112 17.2894 6.73024 17.2968 6.76858L17.4491 7.55976C17.4943 7.7948 17.6712 7.97853 17.8974 8.02554L18.6588 8.18377C18.6957 8.19144 18.7333 8.19454 18.7709 8.1976C19.1389 8.22756 19.4286 8.54738 19.4286 8.93749C19.4286 9.32761 19.1389 9.64742 18.7709 9.67739C18.7333 9.68044 18.6957 9.68354 18.6588 9.69121L17.8974 9.84945C17.6712 9.89646 17.4943 10.0802 17.4491 10.3152L17.2968 11.1064C17.2894 11.1447 17.2864 11.1839 17.2835 11.2228C17.2547 11.6053 16.9469 11.9062 16.5714 11.9062C16.196 11.9062 15.8882 11.6053 15.8594 11.2228C15.8564 11.1839 15.8534 11.1447 15.846 11.1064L15.6938 10.3152C15.6485 10.0802 15.4717 9.89646 15.2455 9.84945L14.4841 9.69121C14.4472 9.68354 14.4095 9.68044 14.372 9.67739C14.004 9.64742 13.7143 9.32761 13.7143 8.93749C13.7143 8.54738 14.004 8.22756 14.372 8.1976C14.4095 8.19454 14.4472 8.19144 14.4841 8.18377L15.2455 8.02554C15.4717 7.97853 15.6485 7.7948 15.6938 7.55976L15.846 6.76858C15.8534 6.73024 15.8564 6.69112 15.8594 6.65214C15.8882 6.26972 16.196 5.96874 16.5714 5.96874C16.9469 5.96874 17.2547 6.26972 17.2835 6.65214ZM5.14286 10.125C4.82727 10.125 4.57143 10.3908 4.57143 10.7187C4.57143 11.0467 4.82727 11.3125 5.14286 11.3125H11.4286C11.7442 11.3125 12 11.0467 12 10.7187C12 10.3908 11.7442 10.125 11.4286 10.125H5.14286ZM5.14286 13.3906C4.82727 13.3906 4.57143 13.6565 4.57143 13.9844C4.57143 14.3123 4.82727 14.5781 5.14286 14.5781H15.7143C16.0299 14.5781 16.2857 14.3123 16.2857 13.9844C16.2857 13.6565 16.0299 13.3906 15.7143 13.3906H5.14286ZM5.14286 16.6563C4.82727 16.6563 4.57143 16.9221 4.57143 17.25C4.57143 17.5779 4.82727 17.8438 5.14286 17.8438H18.8571C19.1727 17.8438 19.4286 17.5779 19.4286 17.25C19.4286 16.9221 19.1727 16.6563 18.8571 16.6563H5.14286Z" fill="#006BD6"/>
</svg>
